<?xml version="1.0" encoding="utf-8"?>
<!-- Generator: Adobe Illustrator 23.0.1, SVG Export Plug-In . SVG Version: 6.00 Build 0)  -->
<svg version="1.1" id="Layer_1" xmlns="http://www.w3.org/2000/svg" xmlns:xlink="http://www.w3.org/1999/xlink" x="0px" y="0px"
	 viewBox="0 0 137 80" style="enable-background:new 0 0 137 80;" xml:space="preserve">
<style type="text/css">
	.st0{fill:#8CC152;}
	.st1{fill:#FFFFFF;}
	.st2{fill:#665E68;}
	.st3{fill:#554E56;}
	.st4{fill:#DFEBFA;}
	.st5{fill:#FFD301;}
	.st6{fill:#FFC20C;}
	.st7{fill:#F44336;}
	.st8{fill:#FAFAFA;}
	.st9{fill:#296D48;}
	.st10{fill:#E6E7E8;}
	.st11{fill:#2C2F38;}
	.st12{fill:#AF8066;}
	.st13{fill:#7F5B53;}
	.st14{fill:#414B82;}
	.st15{fill:#5F6E9B;}
	.st16{fill:#64AFFF;}
	.st17{fill:#FFB69E;}
	.st18{fill:#BA6746;}
	.st19{fill:#4699F2;}
</style>
<g>
	<g>
		<g>
			<path class="st0" d="M117.6,11.3l0.3,2.4l-1.6-0.5l-1.6-0.5l1.5-1.9L117.6,11.3z"/>
		</g>
		<g>
			<path class="st0" d="M118.1,7.3l0.7,3.6l-0.9-0.3l-1.4-0.4l-0.9-0.3L118.1,7.3z"/>
		</g>
		<g>
			<g>
				<path d="M115.8,15.1c-0.3-0.1-0.5-0.4-0.4-0.7l0.5-1.6c0.1-0.3,0.4-0.5,0.7-0.4s0.5,0.4,0.4,0.7l-0.5,1.6
					C116.4,15,116.1,15.2,115.8,15.1z"/>
			</g>
			<g>
				<path d="M117.9,14l-3.2-0.9c-0.2-0.1-0.3-0.2-0.4-0.4c-0.1-0.2,0-0.4,0.1-0.5l1.5-1.9c0.2-0.2,0.5-0.3,0.8-0.1
					c0.2,0.2,0.3,0.5,0.1,0.8l-1,1.2l1.6,0.4l-0.2-1.6c0-0.3,0.2-0.6,0.5-0.6c0.3,0,0.6,0.2,0.6,0.5l0.3,2.4c0,0.2,0,0.4-0.2,0.5
					C118.3,14,118.1,14,117.9,14L117.9,14z"/>
			</g>
			<g>
				<path d="M118.5,11.8l-3.2-0.9c-0.2-0.1-0.3-0.2-0.4-0.4c-0.1-0.2,0-0.4,0.1-0.5l2.5-2.7c0.3-0.3,0.9-0.1,0.9,0.3l0.7,3.6
					c0,0.2,0,0.4-0.2,0.5C118.9,11.9,118.7,11.9,118.5,11.8L118.5,11.8z M116.5,10.1l1.5,0.4l-0.3-1.7L116.5,10.1z"/>
			</g>
		</g>
	</g>
	<g>
		<path class="st1" d="M9.2,55.8c0,0.3,0,0.5,0,0.6c0,0.2,0,0.3-0.1,0.4C9,57,9,57,8.9,57.1c0,0.1-0.1,0.1-0.2,0.1h-3v13.6
			c0,0.1,0,0.2-0.1,0.2c0,0.1-0.1,0.1-0.2,0.2s-0.2,0.1-0.4,0.1c-0.2,0-0.3,0-0.6,0c-0.2,0-0.4,0-0.6,0c-0.2,0-0.3-0.1-0.4-0.1
			S3.5,71.1,3.5,71c0-0.1-0.1-0.1-0.1-0.2V57.2h-3c-0.1,0-0.1,0-0.2-0.1S0.2,57,0.2,56.9c0-0.1-0.1-0.3-0.1-0.4c0-0.2,0-0.4,0-0.6
			c0-0.3,0-0.5,0-0.7c0-0.2,0-0.3,0.1-0.4c0-0.1,0.1-0.2,0.1-0.2s0.1-0.1,0.2-0.1h8.3c0.1,0,0.1,0,0.2,0.1c0,0,0.1,0.1,0.1,0.2
			c0,0.1,0.1,0.3,0.1,0.4C9.1,55.3,9.2,55.5,9.2,55.8z"/>
		<path class="st1" d="M17.4,60.2c0,0.3,0,0.6,0,0.8c0,0.2,0,0.4-0.1,0.5c0,0.1-0.1,0.2-0.1,0.2c0,0-0.1,0.1-0.2,0.1
			c0,0-0.1,0-0.2,0c-0.1,0-0.1-0.1-0.2-0.1c-0.1,0-0.2-0.1-0.3-0.1c-0.1,0-0.2,0-0.3,0c-0.1,0-0.3,0-0.4,0.1
			c-0.1,0.1-0.3,0.2-0.4,0.3c-0.1,0.2-0.3,0.4-0.4,0.6c-0.1,0.3-0.3,0.6-0.5,1v7.2c0,0.1,0,0.2-0.1,0.2s-0.1,0.1-0.2,0.2
			c-0.1,0-0.2,0.1-0.4,0.1c-0.1,0-0.3,0-0.6,0c-0.2,0-0.4,0-0.6,0c-0.1,0-0.3-0.1-0.4-0.1c-0.1,0-0.2-0.1-0.2-0.2s-0.1-0.1-0.1-0.2
			V59.2c0-0.1,0-0.2,0-0.2s0.1-0.1,0.2-0.2c0.1,0,0.2-0.1,0.3-0.1c0.1,0,0.3,0,0.5,0c0.2,0,0.4,0,0.5,0c0.1,0,0.2,0.1,0.3,0.1
			c0.1,0,0.1,0.1,0.2,0.2c0,0.1,0,0.1,0,0.2v1.4c0.2-0.4,0.4-0.8,0.6-1.1c0.2-0.3,0.4-0.5,0.5-0.7c0.2-0.2,0.3-0.3,0.5-0.3
			s0.3-0.1,0.5-0.1c0.1,0,0.2,0,0.3,0c0.1,0,0.2,0,0.3,0.1c0.1,0,0.2,0.1,0.3,0.1c0.1,0,0.1,0.1,0.2,0.1c0,0,0.1,0.1,0.1,0.1
			c0,0.1,0,0.1,0,0.2c0,0.1,0,0.2,0,0.4C17.4,59.7,17.4,59.9,17.4,60.2z"/>
		<path class="st1" d="M28.9,70.8c0,0.1,0,0.2-0.1,0.3c-0.1,0.1-0.2,0.1-0.3,0.1c-0.1,0-0.3,0-0.6,0c-0.3,0-0.5,0-0.6,0
			c-0.1,0-0.2-0.1-0.3-0.1C27.1,71,27,70.9,27,70.8v-0.9c-0.3,0.5-0.7,0.9-1.1,1.2c-0.4,0.3-0.9,0.4-1.4,0.4c-0.4,0-0.8-0.1-1.2-0.2
			c-0.4-0.2-0.7-0.4-0.9-0.7c-0.3-0.3-0.5-0.7-0.6-1.2c-0.1-0.5-0.2-1-0.2-1.6c0-0.7,0.1-1.3,0.3-1.8c0.2-0.5,0.5-0.9,0.8-1.2
			c0.4-0.3,0.8-0.6,1.4-0.7c0.5-0.2,1.2-0.2,1.9-0.2h0.8v-0.7c0-0.4,0-0.7-0.1-1c-0.1-0.3-0.1-0.5-0.3-0.7c-0.1-0.2-0.3-0.3-0.5-0.4
			c-0.2-0.1-0.4-0.1-0.7-0.1c-0.4,0-0.7,0.1-1,0.2c-0.3,0.1-0.6,0.3-0.8,0.4c-0.2,0.1-0.4,0.3-0.6,0.4c-0.2,0.1-0.3,0.2-0.4,0.2
			c-0.1,0-0.1,0-0.2-0.1c-0.1-0.1-0.1-0.1-0.1-0.3c0-0.1-0.1-0.3-0.1-0.4c0-0.2,0-0.3,0-0.5c0-0.3,0-0.5,0-0.6
			c0-0.2,0.1-0.3,0.2-0.4c0.1-0.1,0.2-0.3,0.4-0.4c0.2-0.2,0.5-0.3,0.7-0.4c0.3-0.1,0.6-0.2,0.9-0.3c0.3-0.1,0.7-0.1,1-0.1
			c0.6,0,1.2,0.1,1.6,0.3c0.5,0.2,0.8,0.5,1.1,0.8c0.3,0.4,0.5,0.8,0.6,1.4c0.1,0.6,0.2,1.3,0.2,2.1V70.8z M26.7,65.8h-0.9
			c-0.4,0-0.7,0-0.9,0.1c-0.3,0.1-0.5,0.2-0.6,0.4c-0.2,0.2-0.3,0.3-0.4,0.6c-0.1,0.2-0.1,0.5-0.1,0.8c0,0.5,0.1,0.9,0.3,1.1
			c0.2,0.3,0.5,0.4,0.9,0.4c0.3,0,0.6-0.1,0.9-0.4c0.3-0.2,0.5-0.6,0.8-1V65.8z"/>
		<path class="st1" d="M41.7,70.8c0,0.1,0,0.2-0.1,0.2s-0.1,0.1-0.2,0.2c-0.1,0-0.2,0.1-0.4,0.1c-0.1,0-0.3,0-0.6,0
			c-0.2,0-0.4,0-0.6,0c-0.1,0-0.3-0.1-0.4-0.1c-0.1,0-0.1-0.1-0.2-0.2s-0.1-0.1-0.1-0.2v-6.6c0-0.6,0-1-0.1-1.3
			c-0.1-0.3-0.1-0.6-0.3-0.8s-0.3-0.4-0.4-0.5c-0.2-0.1-0.4-0.2-0.6-0.2c-0.3,0-0.6,0.2-0.9,0.5c-0.3,0.3-0.6,0.7-0.9,1.3v7.7
			c0,0.1,0,0.2-0.1,0.2s-0.1,0.1-0.2,0.2c-0.1,0-0.2,0.1-0.4,0.1c-0.1,0-0.3,0-0.6,0c-0.2,0-0.4,0-0.6,0c-0.1,0-0.3-0.1-0.4-0.1
			c-0.1,0-0.2-0.1-0.2-0.2s-0.1-0.1-0.1-0.2V59.2c0-0.1,0-0.2,0-0.2c0-0.1,0.1-0.1,0.2-0.2c0.1,0,0.2-0.1,0.3-0.1c0.1,0,0.3,0,0.5,0
			c0.2,0,0.4,0,0.5,0c0.1,0,0.2,0.1,0.3,0.1c0.1,0,0.1,0.1,0.2,0.2c0,0.1,0,0.1,0,0.2v1.3c0.5-0.7,0.9-1.2,1.4-1.6
			c0.5-0.3,1-0.5,1.5-0.5c0.6,0,1,0.1,1.4,0.4c0.4,0.3,0.7,0.6,0.9,1.1c0.2,0.4,0.4,1,0.5,1.6c0.1,0.6,0.2,1.3,0.2,2.2V70.8z"/>
		<path class="st1" d="M52.3,67.5c0,0.7-0.1,1.2-0.3,1.7c-0.2,0.5-0.4,0.9-0.7,1.3c-0.3,0.3-0.7,0.6-1.1,0.8
			c-0.4,0.2-0.9,0.3-1.4,0.3c-0.3,0-0.6,0-0.9-0.1s-0.5-0.1-0.7-0.2c-0.2-0.1-0.4-0.2-0.5-0.3c-0.1-0.1-0.3-0.2-0.3-0.3
			c-0.1-0.1-0.1-0.2-0.2-0.4s-0.1-0.5-0.1-0.9c0-0.3,0-0.5,0-0.6c0-0.2,0-0.3,0.1-0.4c0-0.1,0.1-0.2,0.1-0.2c0,0,0.1,0,0.1,0
			c0.1,0,0.2,0.1,0.3,0.2c0.1,0.1,0.3,0.2,0.5,0.4c0.2,0.1,0.4,0.3,0.7,0.4s0.6,0.2,0.9,0.2c0.2,0,0.4,0,0.6-0.1s0.3-0.1,0.4-0.3
			c0.1-0.1,0.2-0.3,0.3-0.4c0.1-0.2,0.1-0.4,0.1-0.6c0-0.3-0.1-0.5-0.2-0.7c-0.1-0.2-0.3-0.3-0.4-0.5c-0.2-0.1-0.4-0.3-0.6-0.4
			c-0.2-0.1-0.5-0.3-0.7-0.4c-0.2-0.1-0.5-0.3-0.7-0.5c-0.2-0.2-0.4-0.4-0.6-0.7c-0.2-0.3-0.3-0.6-0.4-1c-0.1-0.4-0.2-0.9-0.2-1.4
			c0-0.6,0.1-1.1,0.2-1.5c0.2-0.5,0.4-0.9,0.7-1.2c0.3-0.3,0.6-0.6,1-0.8c0.4-0.2,0.9-0.3,1.4-0.3c0.3,0,0.5,0,0.7,0.1
			c0.2,0.1,0.5,0.1,0.7,0.2c0.2,0.1,0.4,0.2,0.5,0.3c0.1,0.1,0.2,0.2,0.3,0.2c0.1,0.1,0.1,0.1,0.1,0.2c0,0.1,0,0.1,0.1,0.2
			c0,0.1,0,0.2,0,0.3s0,0.3,0,0.5c0,0.2,0,0.4,0,0.6c0,0.1,0,0.3,0,0.4c0,0.1-0.1,0.1-0.1,0.2c0,0-0.1,0-0.1,0c-0.1,0-0.1,0-0.3-0.1
			c-0.1-0.1-0.3-0.2-0.4-0.3c-0.2-0.1-0.4-0.2-0.6-0.3c-0.2-0.1-0.5-0.1-0.8-0.1c-0.2,0-0.4,0-0.5,0.1c-0.2,0.1-0.3,0.1-0.4,0.3
			c-0.1,0.1-0.2,0.2-0.2,0.4c0,0.2-0.1,0.3-0.1,0.5c0,0.3,0.1,0.5,0.2,0.7c0.1,0.2,0.3,0.3,0.5,0.5c0.2,0.1,0.4,0.3,0.6,0.4
			c0.2,0.1,0.5,0.3,0.7,0.4c0.2,0.1,0.5,0.3,0.7,0.5c0.2,0.2,0.5,0.4,0.6,0.7c0.2,0.3,0.3,0.6,0.5,1C52.2,66.5,52.3,67,52.3,67.5z"
			/>
		<path class="st1" d="M66.2,64.8c0,1-0.1,2-0.2,2.8c-0.2,0.8-0.4,1.5-0.7,2.1c-0.3,0.6-0.7,1-1.1,1.3c-0.4,0.3-1,0.5-1.5,0.5
			c-0.2,0-0.5,0-0.7-0.1c-0.2-0.1-0.4-0.2-0.6-0.3c-0.2-0.1-0.4-0.3-0.6-0.5c-0.2-0.2-0.4-0.4-0.6-0.7v5.5c0,0.1,0,0.2-0.1,0.2
			c0,0.1-0.1,0.1-0.2,0.2c-0.1,0-0.2,0.1-0.4,0.1c-0.1,0-0.3,0-0.6,0c-0.2,0-0.4,0-0.6,0c-0.1,0-0.3-0.1-0.4-0.1
			c-0.1,0-0.2-0.1-0.2-0.2c0-0.1-0.1-0.1-0.1-0.2V59.2c0-0.1,0-0.2,0-0.2c0-0.1,0.1-0.1,0.2-0.2c0.1,0,0.2-0.1,0.3-0.1
			c0.1,0,0.3,0,0.5,0c0.2,0,0.3,0,0.5,0c0.1,0,0.2,0.1,0.3,0.1c0.1,0,0.1,0.1,0.2,0.2c0,0.1,0,0.1,0,0.2v1.4
			c0.2-0.3,0.5-0.7,0.7-0.9c0.2-0.3,0.5-0.5,0.7-0.7c0.2-0.2,0.5-0.3,0.7-0.4c0.3-0.1,0.5-0.1,0.8-0.1c0.6,0,1.1,0.2,1.5,0.5
			c0.4,0.3,0.8,0.8,1,1.4s0.5,1.3,0.6,2C66.2,63.1,66.2,63.9,66.2,64.8z M63.8,65c0-0.5,0-1-0.1-1.4c-0.1-0.5-0.1-0.9-0.3-1.2
			c-0.1-0.4-0.3-0.6-0.5-0.9c-0.2-0.2-0.5-0.3-0.8-0.3c-0.2,0-0.3,0-0.5,0.1s-0.3,0.2-0.5,0.3c-0.2,0.1-0.3,0.3-0.5,0.6
			c-0.2,0.2-0.3,0.5-0.5,0.9v3.8c0.3,0.6,0.6,1,0.9,1.3c0.3,0.3,0.6,0.5,0.9,0.5c0.3,0,0.6-0.1,0.8-0.3c0.2-0.2,0.4-0.5,0.5-0.9
			c0.1-0.4,0.2-0.7,0.3-1.2C63.8,65.9,63.8,65.5,63.8,65z"/>
		<path class="st1" d="M79.3,64.9c0,1-0.1,1.9-0.3,2.7c-0.2,0.8-0.5,1.5-0.8,2.1s-0.8,1-1.4,1.4c-0.6,0.3-1.2,0.5-2,0.5
			c-0.7,0-1.4-0.1-1.9-0.4c-0.5-0.3-1-0.7-1.3-1.3s-0.6-1.2-0.8-2c-0.2-0.8-0.3-1.7-0.3-2.7c0-1,0.1-1.9,0.3-2.7
			c0.2-0.8,0.5-1.5,0.8-2.1c0.4-0.6,0.8-1,1.4-1.4c0.6-0.3,1.2-0.5,2-0.5c0.7,0,1.4,0.1,1.9,0.4c0.5,0.3,1,0.7,1.3,1.2
			c0.3,0.5,0.6,1.2,0.8,2C79.2,62.9,79.3,63.8,79.3,64.9z M76.9,65c0-0.6,0-1.1-0.1-1.6c-0.1-0.5-0.2-0.9-0.3-1.3
			c-0.2-0.4-0.4-0.6-0.6-0.8c-0.3-0.2-0.6-0.3-1-0.3c-0.3,0-0.6,0.1-0.9,0.3c-0.3,0.2-0.5,0.4-0.6,0.8c-0.2,0.3-0.3,0.8-0.4,1.2
			c-0.1,0.5-0.1,1-0.1,1.6c0,0.6,0,1.1,0.1,1.6s0.2,0.9,0.3,1.3c0.1,0.4,0.4,0.6,0.6,0.8c0.3,0.2,0.6,0.3,0.9,0.3
			c0.3,0,0.6-0.1,0.9-0.3c0.3-0.2,0.5-0.4,0.6-0.8c0.2-0.3,0.3-0.7,0.4-1.2C76.9,66.2,76.9,65.6,76.9,65z"/>
		<path class="st1" d="M88.4,60.2c0,0.3,0,0.6,0,0.8c0,0.2,0,0.4-0.1,0.5c0,0.1-0.1,0.2-0.1,0.2c0,0-0.1,0.1-0.2,0.1
			c0,0-0.1,0-0.2,0c-0.1,0-0.1-0.1-0.2-0.1c-0.1,0-0.2-0.1-0.3-0.1c-0.1,0-0.2,0-0.3,0c-0.1,0-0.3,0-0.4,0.1
			c-0.1,0.1-0.3,0.2-0.4,0.3c-0.1,0.2-0.3,0.4-0.4,0.6c-0.1,0.3-0.3,0.6-0.5,1v7.2c0,0.1,0,0.2-0.1,0.2c0,0.1-0.1,0.1-0.2,0.2
			s-0.2,0.1-0.4,0.1c-0.1,0-0.3,0-0.6,0c-0.2,0-0.4,0-0.6,0c-0.1,0-0.3-0.1-0.4-0.1s-0.2-0.1-0.2-0.2c0-0.1-0.1-0.1-0.1-0.2V59.2
			c0-0.1,0-0.2,0-0.2c0-0.1,0.1-0.1,0.2-0.2c0.1,0,0.2-0.1,0.3-0.1c0.1,0,0.3,0,0.5,0c0.2,0,0.4,0,0.5,0c0.1,0,0.2,0.1,0.3,0.1
			c0.1,0,0.1,0.1,0.2,0.2c0,0.1,0,0.1,0,0.2v1.4c0.2-0.4,0.4-0.8,0.6-1.1c0.2-0.3,0.4-0.5,0.5-0.7c0.2-0.2,0.3-0.3,0.5-0.3
			c0.2-0.1,0.3-0.1,0.5-0.1c0.1,0,0.2,0,0.3,0c0.1,0,0.2,0,0.3,0.1c0.1,0,0.2,0.1,0.3,0.1c0.1,0,0.1,0.1,0.2,0.1s0.1,0.1,0.1,0.1
			c0,0.1,0,0.1,0,0.2c0,0.1,0,0.2,0,0.4C88.4,59.7,88.4,59.9,88.4,60.2z"/>
		<path class="st1" d="M98.2,69.6c0,0.4,0,0.7-0.1,0.9c0,0.2-0.1,0.3-0.1,0.4c-0.1,0.1-0.1,0.2-0.2,0.2c-0.1,0.1-0.2,0.1-0.4,0.2
			c-0.1,0-0.3,0.1-0.5,0.1c-0.2,0-0.3,0-0.5,0c-0.5,0-0.9-0.1-1.2-0.2c-0.3-0.2-0.6-0.4-0.8-0.8c-0.2-0.3-0.4-0.8-0.5-1.3
			c-0.1-0.5-0.2-1.1-0.2-1.8v-5.9h-1c-0.1,0-0.2-0.1-0.3-0.3c-0.1-0.2-0.1-0.5-0.1-1c0-0.3,0-0.5,0-0.6c0-0.2,0-0.3,0.1-0.4
			c0-0.1,0.1-0.2,0.1-0.2c0,0,0.1-0.1,0.2-0.1h1v-2.6c0-0.1,0-0.2,0.1-0.2c0-0.1,0.1-0.1,0.2-0.2c0.1,0,0.2-0.1,0.4-0.1
			c0.1,0,0.3,0,0.6,0c0.2,0,0.4,0,0.6,0c0.1,0,0.3,0.1,0.4,0.1c0.1,0,0.1,0.1,0.2,0.2c0,0.1,0.1,0.1,0.1,0.2v2.6h1.8
			c0.1,0,0.1,0,0.2,0.1c0,0,0.1,0.1,0.1,0.2c0,0.1,0.1,0.2,0.1,0.4c0,0.2,0,0.4,0,0.6c0,0.5,0,0.8-0.1,1c-0.1,0.2-0.1,0.3-0.3,0.3
			h-1.8v5.5c0,0.6,0.1,1.1,0.2,1.4c0.1,0.3,0.4,0.5,0.7,0.5c0.1,0,0.2,0,0.3,0c0.1,0,0.2-0.1,0.3-0.1c0.1,0,0.1-0.1,0.2-0.1
			c0.1,0,0.1,0,0.1,0c0,0,0.1,0,0.1,0c0,0,0.1,0.1,0.1,0.2c0,0.1,0,0.2,0.1,0.4S98.2,69.4,98.2,69.6z"/>
		<path class="st1" d="M108.3,64.7c0,0.5,0,0.9-0.1,1.1c-0.1,0.2-0.2,0.3-0.3,0.3h-3.8c-0.2,0-0.3-0.1-0.3-0.3
			c-0.1-0.2-0.1-0.6-0.1-1c0-0.5,0-0.8,0.1-1c0.1-0.2,0.2-0.3,0.3-0.3h3.8c0.1,0,0.1,0,0.2,0.1c0.1,0,0.1,0.1,0.1,0.2
			c0,0.1,0.1,0.2,0.1,0.4C108.3,64.2,108.3,64.4,108.3,64.7z"/>
		<path class="st1" d="M122.5,66.2c0,0.6-0.1,1.1-0.2,1.6c-0.1,0.5-0.3,0.9-0.5,1.3c-0.2,0.4-0.4,0.7-0.7,1
			c-0.3,0.3-0.6,0.5-0.9,0.7c-0.3,0.2-0.7,0.3-1.1,0.4c-0.4,0.1-0.8,0.1-1.3,0.1h-3.1c-0.2,0-0.4-0.1-0.5-0.3
			c-0.1-0.2-0.2-0.4-0.2-0.8V55.5c0-0.4,0.1-0.7,0.2-0.8c0.1-0.2,0.3-0.3,0.5-0.3h3c0.7,0,1.3,0.1,1.8,0.3c0.5,0.2,0.9,0.4,1.3,0.8
			c0.3,0.4,0.6,0.8,0.8,1.3c0.2,0.5,0.3,1.2,0.3,1.9c0,0.4,0,0.8-0.1,1.2c-0.1,0.4-0.2,0.7-0.3,1c-0.1,0.3-0.3,0.6-0.5,0.8
			c-0.2,0.2-0.4,0.4-0.7,0.5c0.3,0.1,0.6,0.2,0.9,0.5c0.3,0.2,0.5,0.5,0.7,0.8c0.2,0.3,0.4,0.7,0.5,1.2
			C122.4,65.1,122.5,65.6,122.5,66.2z M119.4,59.1c0-0.3,0-0.6-0.1-0.9c-0.1-0.3-0.2-0.5-0.3-0.7c-0.1-0.2-0.3-0.3-0.6-0.4
			s-0.5-0.1-0.9-0.1h-1.2v4.4h1.3c0.3,0,0.6-0.1,0.8-0.2c0.2-0.1,0.4-0.3,0.5-0.5c0.1-0.2,0.2-0.4,0.3-0.7S119.4,59.4,119.4,59.1z
			 M120,66.3c0-0.4,0-0.7-0.1-1c-0.1-0.3-0.2-0.6-0.4-0.8c-0.2-0.2-0.4-0.4-0.7-0.5c-0.3-0.1-0.6-0.2-1.1-0.2h-1.4v4.8h1.7
			c0.3,0,0.6,0,0.8-0.1c0.2-0.1,0.4-0.2,0.6-0.4s0.3-0.4,0.4-0.7S120,66.7,120,66.3z"/>
		<path class="st1" d="M137,62.6c0,1.5-0.1,2.9-0.4,4s-0.7,2-1.2,2.7c-0.5,0.7-1.2,1.2-1.9,1.5c-0.8,0.3-1.7,0.5-2.7,0.5h-2.8
			c-0.2,0-0.4-0.1-0.5-0.3c-0.1-0.2-0.2-0.4-0.2-0.8V55.5c0-0.4,0.1-0.7,0.2-0.8c0.1-0.2,0.3-0.3,0.5-0.3h3c1.1,0,1.9,0.2,2.7,0.5
			c0.7,0.4,1.4,0.9,1.9,1.6c0.5,0.7,0.9,1.5,1.1,2.6C136.9,60,137,61.2,137,62.6z M134.5,62.7c0-0.8-0.1-1.5-0.2-2.2
			c-0.1-0.7-0.3-1.3-0.6-1.8c-0.3-0.5-0.7-0.9-1.1-1.2c-0.5-0.3-1-0.4-1.8-0.4h-1.2v11.5h1.3c0.7,0,1.2-0.1,1.7-0.4
			c0.5-0.2,0.8-0.6,1.1-1.1c0.3-0.5,0.5-1.1,0.7-1.8C134.4,64.5,134.5,63.6,134.5,62.7z"/>
	</g>
	<g>
		<g>
			<g>
				<path class="st2" d="M82.8,35.2c19.5-22.4,44.2-8.6,54-1.6c0.1,0.1,0.5,0,0.5-0.1l-0.2-5.3c0-0.8-0.6-1.6-1.6-2.4
					c-11.4-8-39.1-23.9-61.3-9.5c-25.5,16.5-60.1,1-75-7.3l1.2,34.3C18.6,47.5,65.3,55.4,82.8,35.2z"/>
			</g>
			<path class="st3" d="M-0.7,9.2l0.3,7.5c17.2,8.4,51.1,21,76.6,5.5c21.3-13,47.2-1.6,61,6.7l0-0.6c0-0.8-0.6-1.6-1.6-2.4
				c-11.4-8-39.1-23.9-61.3-9.5C48.8,33,14.2,17.5-0.7,9.2L-0.7,9.2z"/>
			<g>
				<path class="st4" d="M117.9,21.3c0-0.2,0.3-0.5,0.9-0.7c0.9-0.3,2.2-0.2,2.9,0.1c0.6,0.3,0.9,0.5,1,0.5c0.6,0.3,0.2,0.8-0.7,1.1
					c-1,0.2-2.3,0.2-2.8-0.2c0,0-0.3-0.2-0.8-0.4C118,21.6,117.9,21.4,117.9,21.3z"/>
			</g>
			<g>
				<path class="st4" d="M18.9,32c0-0.2,0.2-0.4,0.5-0.5c0.8-0.3,2.1-0.4,2.9-0.1c0.8,0.2,1.7,0.5,2.5,0.7c0.9,0.2,1,0.7,0.3,1.1
					c-0.7,0.3-2,0.4-2.9,0.2c-0.9-0.2-1.8-0.5-2.6-0.8C19.2,32.4,18.9,32.2,18.9,32L18.9,32z"/>
				<path class="st4" d="M30.7,34.8c0-0.1,0.1-0.3,0.3-0.4c0.6-0.4,1.8-0.6,2.8-0.4c1,0.2,1.9,0.3,2.9,0.5c1,0.1,1.5,0.6,1,1
					c-0.5,0.4-1.7,0.6-2.7,0.5c-1-0.1-2.1-0.3-3.1-0.5C31.1,35.3,30.7,35,30.7,34.8z"/>
				<path class="st4" d="M44.5,36C44.5,36,44.5,36,44.5,36c0.1-0.5,1.1-0.8,2.2-0.8c0.6,0,1.1,0,1.7,0c0.5,0,0.9,0,1.4-0.1
					c1.1-0.1,2.1,0.2,2.2,0.6c0.1,0.4-0.8,0.8-1.9,0.9c-0.6,0-1.1,0.1-1.7,0.1c-0.7,0-1.3,0-2,0C45.3,36.7,44.5,36.4,44.5,36z"/>
				<path class="st4" d="M58.3,34.2c0-0.2,0.3-0.5,0.9-0.7c0.8-0.2,1.7-0.5,2.5-0.8c0.9-0.3,2.2-0.3,2.9,0c0.8,0.3,0.7,0.8-0.2,1.1
					c-0.9,0.3-1.9,0.6-2.9,0.9c-0.9,0.3-2.2,0.2-2.9-0.1C58.4,34.5,58.3,34.3,58.3,34.2L58.3,34.2z"/>
				<path class="st4" d="M68.1,30c0-0.1,0.1-0.3,0.3-0.4c0.6-0.3,1.1-0.7,1.6-1.1c0.5-0.4,1.8-0.6,2.8-0.4c1,0.2,1.4,0.6,0.8,1
					c-0.6,0.4-1.2,0.8-1.8,1.2c-0.6,0.4-1.9,0.5-2.9,0.3C68.4,30.4,68.1,30.2,68.1,30L68.1,30z"/>
				<path class="st4" d="M74.6,25c0-0.1,0.1-0.2,0.2-0.4c0.5-0.4,1-0.8,1.6-1.2c0.5-0.4,1.8-0.6,2.8-0.4c1,0.2,1.4,0.6,0.8,1
					c-0.5,0.4-1,0.7-1.5,1.1c-0.5,0.4-1.7,0.6-2.8,0.4C75.1,25.5,74.6,25.3,74.6,25L74.6,25z"/>
				<path class="st4" d="M82.3,20.2c0-0.2,0.2-0.4,0.5-0.5c0.8-0.4,1.6-0.7,2.4-1c0.8-0.3,2.1-0.4,2.9-0.1c0.8,0.3,0.8,0.8,0,1.1
					c-0.7,0.3-1.4,0.6-2.1,0.9c-0.7,0.3-2,0.4-2.9,0.2C82.6,20.6,82.3,20.4,82.3,20.2L82.3,20.2z"/>
				<path class="st4" d="M94.1,16.9c0-0.4,0.6-0.7,1.6-0.8c1.1-0.1,2.3-0.2,3.4-0.2c0.1,0,0.3,0,0.4,0c1.1,0,2.1,0.3,2,0.7
					c0,0.4-1,0.8-2.1,0.8c-0.1,0-0.2,0-0.3,0c-0.8,0-1.7,0.1-2.5,0.2c-1.1,0.1-2.2-0.1-2.5-0.5C94.2,17,94.1,16.9,94.1,16.9
					L94.1,16.9z"/>
				<path class="st4" d="M107.9,17.7c0-0.2,0.1-0.3,0.4-0.5c0.7-0.4,2-0.5,2.9-0.3c0.9,0.2,1.9,0.5,2.8,0.7c0.9,0.3,0.9,0.7,0.2,1.1
					c-0.8,0.3-2.1,0.4-2.9,0.2c-0.8-0.2-1.6-0.5-2.5-0.6C108.2,18.2,107.9,17.9,107.9,17.7z"/>
			</g>
			<g>
				<path class="st4" d="M10,28.8c0-0.2,0.3-0.5,0.8-0.6c0.9-0.3,2.2-0.3,2.9,0c0,0,0.4,0.2,1,0.4c0.7,0.3,0.6,0.8-0.2,1.1
					c-0.9,0.3-2.2,0.3-2.9,0c-0.7-0.3-1.1-0.5-1.1-0.5C10.2,29.1,10,28.9,10,28.8z"/>
			</g>
			<path class="st5" d="M87.9,36.8c16.7-21.3,37-10.1,47.5-2.7c0.5,0.3,2.1,0.2,2.1-0.2l0-0.3c-9.4-6.9-34.7-21.7-54.6,1.2
				C65.3,54.9,18.5,47,0.5,43l0.1,3.9c0,1,1.7,1.8,4.3,2.2C29.8,52.6,73.4,55.3,87.9,36.8L87.9,36.8z"/>
			<g>
				<g>
					<path class="st6" d="M74.3,16.7c16.4-10.6,35.8-4.9,49.4,2.1C110.7,10.9,89.3,2,70.9,13.9c-21.6,14-49.8,1.1-67-8.4
						C2.6,4.8-0.8,5.2-0.8,6.1l0.1,3.4C14.2,17.7,48.8,33.2,74.3,16.7z"/>
				</g>
			</g>
		</g>
		<path class="st7" d="M63.7,24.9l-6.1-8c-0.4-0.5-1-0.7-1.6-0.7l-12,1.3c-0.9,0.1-1.6,1-1.5,1.9l1.8,17.2c0.1,0.9,1,1.6,1.9,1.5
			l17.2-1.8c0.9-0.1,1.6-1,1.5-1.9l-0.9-8.6C64.1,25.5,63.9,25.2,63.7,24.9z"/>
		<polygon class="st8" points="49.6,20.3 55.5,19.7 60.4,26.2 50.3,27.2 		"/>
		<path class="st9" d="M43.4,10.6l-24,2.5c-0.9,0.1-1.6,1-1.5,1.9l2.5,24c0.1,0.9,1,1.6,1.9,1.5L48,37.9l-2.7-25.8
			C45.2,11.2,44.3,10.5,43.4,10.6z"/>
		<circle class="st8" cx="56.4" cy="35.3" r="3.5"/>
		<path d="M56.6,40.4c-2.9,0.1-5.3-2.1-5.4-5c-0.1-2.9,2.1-5.3,5-5.4c2.9-0.1,5.3,2.1,5.4,5C61.7,37.9,59.4,40.3,56.6,40.4z
			 M56.3,33.5c-0.9,0-1.7,0.8-1.7,1.8c0,0.9,0.8,1.7,1.8,1.7c0.9,0,1.7-0.8,1.7-1.8S57.3,33.5,56.3,33.5z"/>
		<path class="st7" d="M48,37.9l-25.8,2.7c-0.9,0.1-1.8-0.6-1.9-1.5l-0.5-5.2L47.3,31L48,37.9z"/>
		<circle class="st8" cx="32.4" cy="37.8" r="3.5"/>
		<path d="M32.9,42.9c-2.8,0.3-5.4-1.8-5.7-4.6c-0.3-2.8,1.8-5.4,4.6-5.7c2.8-0.3,5.4,1.8,5.7,4.6C37.8,40.1,35.7,42.6,32.9,42.9z
			 M32.2,36.1c-0.9,0.1-1.6,1-1.5,1.9s1,1.6,1.9,1.5c0.9-0.1,1.6-1,1.5-1.9C34,36.7,33.1,36,32.2,36.1z"/>
		<g>
			<path class="st1" d="M27,18.5l0.2,1.9l-1.5,0.2l0.8,7.6l-2.5,0.3l-0.8-7.6L21.8,21l-0.2-1.9L27,18.5z"/>
			<path class="st1" d="M30.1,23.1l0.2,1.6L27.2,25L27,23.4L30.1,23.1z"/>
			<path class="st1" d="M30.3,18.2l2.5-0.3c0.8-0.1,1.4-0.1,1.8,0c0.4,0.1,0.8,0.3,1.1,0.6c0.3,0.3,0.5,0.9,0.6,1.8
				c0.1,0.6,0,1-0.1,1.2c-0.2,0.2-0.5,0.4-1,0.6c0.6,0.1,1,0.2,1.2,0.5c0.2,0.3,0.4,0.7,0.5,1.3l0.1,0.9c0.1,0.6,0,1.1-0.1,1.5
				c-0.1,0.3-0.3,0.6-0.6,0.7s-1,0.3-2,0.4l-2.9,0.3L30.3,18.2z M33,19.5l0.2,2.1c0.1,0,0.2,0,0.2,0c0.2,0,0.4-0.1,0.4-0.2
				c0.1-0.1,0.1-0.5,0-1c0-0.3-0.1-0.5-0.1-0.6c-0.1-0.1-0.1-0.2-0.2-0.2C33.4,19.5,33.2,19.5,33,19.5z M33.4,23.1l0.3,2.7
				c0.3,0,0.6-0.1,0.7-0.2c0.1-0.1,0.1-0.4,0.1-0.7l-0.1-0.9c0-0.4-0.1-0.7-0.2-0.7C34,23.1,33.7,23.1,33.4,23.1z"/>
			<path class="st1" d="M37,17.5l1.9-0.2c1.2-0.1,2-0.2,2.4-0.1c0.4,0.1,0.8,0.2,1,0.4c0.2,0.2,0.4,0.5,0.5,0.8
				c0.1,0.3,0.2,0.9,0.3,1.8l0.4,3.3c0.1,0.9,0.1,1.4,0.1,1.7c-0.1,0.3-0.2,0.5-0.3,0.7c-0.2,0.2-0.4,0.3-0.7,0.4
				c-0.3,0.1-0.7,0.2-1.3,0.2L38,27L37,17.5z M39.6,18.8l0.7,6.3c0.4,0,0.6-0.1,0.6-0.3c0.1-0.2,0.1-0.5,0-1.2l-0.4-3.7
				c0-0.4-0.1-0.7-0.1-0.8c0-0.1-0.1-0.2-0.2-0.2C40.1,18.8,39.9,18.8,39.6,18.8z"/>
		</g>
	</g>
	<g id="Page-1">
		<g>
			<path id="Shape" class="st10" d="M58.9,2L59,3.8l0.1,1.9l0.1,1.9L59.3,9c0,0.1,0.1,0.2,0.1,0.2c0.1,0,0.2,0,0.3,0
				c0.4-0.3,0.9-0.5,1.3-0.6c0.6-0.1,1.2-0.1,1.8,0.1c0.6,0.2,1.2,0.4,1.8,0.6c0.6,0.2,1.2,0.5,1.8,0.6c0.6,0.2,1.2,0.2,1.8,0.1l0,0
				c0.6-0.1,1.2-0.4,1.7-0.9l-0.1-1.9l-0.1-1.9l-0.1-1.9l-0.1-1.9c-0.5,0.5-1.1,0.8-1.7,0.9c-0.6,0.1-1.2,0.1-1.8-0.1
				c-0.6-0.2-1.2-0.4-1.8-0.6C63.6,1.4,63,1.2,62.4,1c-0.6-0.2-1.2-0.2-1.8-0.1C60,1,59.5,1.3,59,1.7C59,1.8,58.9,1.9,58.9,2z"/>
			<path class="st11" d="M67.8,4.3c0,0.6,0.1,1.3,0.1,1.9c0.6-0.1,1.2-0.4,1.7-0.9l-0.1-1.9C69,3.9,68.4,4.2,67.8,4.3z"/>
			<path class="st11" d="M68,8.2c0,0.1,0,0.3,0,0.4c0,0.5,0.1,1,0.1,1.5c0.6-0.1,1.2-0.4,1.7-0.9l-0.1-1.9C69.2,7.7,68.6,8.1,68,8.2
				z"/>
			<path class="st11" d="M66,2.3C66,2.9,66,3.6,66,4.2c0.6,0.2,1.2,0.2,1.8,0.1c0-0.6-0.1-1.3-0.1-1.9C67.1,2.5,66.5,2.5,66,2.3z"/>
			<path class="st11" d="M64.5,7.4c0,0.1,0,0.3,0,0.4c0,0.5,0.1,1,0.1,1.5c0.6,0.2,1.2,0.5,1.8,0.6c0-0.5-0.1-1-0.1-1.5
				c0-0.1,0-0.3,0-0.4C65.6,7.9,65,7.7,64.5,7.4z"/>
			<path class="st11" d="M62.4,1l0.1,1.9c0.6,0.2,1.2,0.4,1.8,0.6c0-0.6-0.1-1.3-0.1-1.9C63.6,1.4,63,1.2,62.4,1z"/>
			<path class="st11" d="M60.9,6.7c0,0.1,0,0.3,0,0.4c0,0.5,0.1,1,0.1,1.5c0.6-0.1,1.2-0.1,1.8,0.1c0-0.5-0.1-1-0.1-1.5
				c0-0.1,0-0.3,0-0.4C62.1,6.6,61.5,6.6,60.9,6.7z"/>
			<path class="st11" d="M59.1,5.7l0.1,1.9c0.5-0.5,1.1-0.8,1.7-0.9c0-0.6-0.1-1.3-0.1-1.9C60.2,4.9,59.6,5.2,59.1,5.7z"/>
			<path class="st11" d="M58.9,2L59,3.8c0.5-0.5,1.1-0.8,1.7-0.9c0-0.6-0.1-1.3-0.1-1.9C60,1,59.5,1.3,59,1.7
				C59,1.8,58.9,1.9,58.9,2z"/>
			<path class="st11" d="M60.7,2.8l0.1,1.9c0.6-0.1,1.2-0.1,1.8,0.1l-0.1-1.9C61.9,2.8,61.3,2.7,60.7,2.8z"/>
			<path class="st11" d="M66.1,6.1l0.1,1.9c0.6,0.2,1.2,0.2,1.8,0.1c0-0.6-0.1-1.3-0.1-1.9C67.3,6.4,66.7,6.3,66.1,6.1z"/>
			<path class="st11" d="M64.3,3.6c0,0.6,0.1,1.3,0.1,1.9c0.6,0.3,1.2,0.5,1.8,0.6L66,4.2C65.4,4,64.8,3.8,64.3,3.6z"/>
			<path class="st11" d="M62.6,4.9c0,0.6,0.1,1.3,0.1,1.9c0.6,0.2,1.2,0.4,1.8,0.6c0-0.6-0.1-1.3-0.1-1.9C63.8,5.3,63.2,5,62.6,4.9z
				"/>
			<path class="st12" d="M69.2,1.3c0,0.1,0,0.1,0,0.2l0.8,15.1c0,0.2,0.1,0.4,0.2,0.5c0.1,0.1,0.3,0.2,0.5,0.2l0,0
				c0.4-0.1,0.7-0.4,0.6-0.8L70.6,1.3c0-0.4-0.4-0.7-0.7-0.7l0,0C69.5,0.7,69.2,0.9,69.2,1.3z"/>
			<path class="st13" d="M69.2,1.3c0,0.1,0,0.1,0,0.2l0.8,15.1c0,0.2,0.1,0.4,0.2,0.5c0.1,0.1,0.3,0.2,0.5,0.2l0,0L69.8,0.6
				C69.5,0.7,69.2,0.9,69.2,1.3z"/>
		</g>
	</g>
	<g>
		<g>
			<path class="st0" d="M86.3,5.5l1.3,2.9h-2.2h-2.2l1.3-2.9H86.3z"/>
		</g>
		<g>
			<path class="st0" d="M85.4,0.1l2.2,4.4h-1.3h-1.9h-1.3L85.4,0.1z"/>
		</g>
		<g>
			<g>
				<path d="M85.4,11c-0.4,0-0.7-0.3-0.7-0.7V8.1c0-0.4,0.3-0.7,0.7-0.7s0.7,0.3,0.7,0.7v2.2C86.1,10.7,85.8,11,85.4,11z"/>
			</g>
			<g>
				<path d="M87.6,8.8h-4.4c-0.2,0-0.5-0.1-0.6-0.3c-0.1-0.2-0.2-0.5-0.1-0.7l1.3-2.9c0.2-0.4,0.6-0.5,1-0.4c0.4,0.2,0.5,0.6,0.4,1
					l-0.8,1.9h2.2l-0.8-1.9c-0.2-0.4,0-0.8,0.4-1c0.4-0.2,0.8,0,1,0.4l1.3,2.9c0.1,0.2,0.1,0.5-0.1,0.7C88.1,8.7,87.9,8.8,87.6,8.8
					L87.6,8.8z"/>
			</g>
			<g>
				<path d="M87.6,5.9h-4.4c-0.3,0-0.5-0.1-0.6-0.3c-0.1-0.2-0.1-0.5,0-0.7l2.2-4.4c0.3-0.5,1.1-0.5,1.3,0l2.2,4.4
					c0.1,0.2,0.1,0.5,0,0.7C88.1,5.7,87.9,5.9,87.6,5.9L87.6,5.9z M84.4,4.4h2l-1-2L84.4,4.4z"/>
			</g>
		</g>
	</g>
	<g>
		<g>
			<path class="st0" d="M102.7,17.4l1.7,4h-3h-3l1.7-4H102.7z"/>
		</g>
		<g>
			<path class="st0" d="M101.4,10.2l3,5.9h-1.7h-2.5h-1.7L101.4,10.2z"/>
		</g>
		<g>
			<g>
				<path d="M101.4,24.8c-0.5,0-1-0.4-1-1v-3c0-0.5,0.4-1,1-1c0.5,0,1,0.4,1,1v3C102.4,24.3,102,24.8,101.4,24.8z"/>
			</g>
			<g>
				<path d="M104.4,21.8h-5.9c-0.3,0-0.6-0.2-0.8-0.4c-0.2-0.3-0.2-0.6-0.1-0.9l1.7-4c0.2-0.5,0.8-0.7,1.3-0.5
					c0.5,0.2,0.7,0.8,0.5,1.3l-1.1,2.6h2.9l-1.1-2.6c-0.2-0.5,0-1.1,0.5-1.3c0.5-0.2,1.1,0,1.3,0.5l1.7,4c0.1,0.3,0.1,0.7-0.1,0.9
					C105,21.7,104.7,21.8,104.4,21.8L104.4,21.8z"/>
			</g>
			<g>
				<path d="M104.4,17.9h-5.9c-0.3,0-0.7-0.2-0.8-0.5c-0.2-0.3-0.2-0.7,0-1l3-5.9c0.3-0.7,1.4-0.7,1.8,0l3,5.9c0.2,0.3,0.1,0.7,0,1
					C105,17.7,104.7,17.9,104.4,17.9L104.4,17.9z M100,15.9h2.7l-1.4-2.7L100,15.9z"/>
			</g>
		</g>
	</g>
	<g>
		<g>
			<path class="st0" d="M129.7,24.8L130,27l-1.5-0.4l-1.5-0.4l1.3-1.8L129.7,24.8z"/>
		</g>
		<g>
			<path class="st0" d="M129.9,21.1l0.8,3.3l-0.8-0.2l-1.3-0.3l-0.8-0.2L129.9,21.1z"/>
		</g>
		<g>
			<g>
				<path d="M128.1,28.4c-0.3-0.1-0.4-0.3-0.4-0.6l0.4-1.5c0.1-0.3,0.3-0.4,0.6-0.4c0.3,0.1,0.4,0.3,0.4,0.6l-0.4,1.5
					C128.7,28.2,128.4,28.4,128.1,28.4z"/>
			</g>
			<g>
				<path d="M130,27.2l-3-0.7c-0.2,0-0.3-0.2-0.4-0.3c-0.1-0.2,0-0.3,0.1-0.5l1.3-1.8c0.2-0.2,0.5-0.3,0.7-0.1
					c0.2,0.2,0.3,0.5,0.1,0.7l-0.9,1.2l1.5,0.4l-0.2-1.4c0-0.3,0.1-0.5,0.4-0.6c0.3,0,0.5,0.1,0.6,0.4l0.4,2.2c0,0.2,0,0.3-0.2,0.5
					C130.3,27.2,130.1,27.3,130,27.2L130,27.2z"/>
			</g>
			<g>
				<path d="M130.5,25.3l-3-0.7c-0.2,0-0.3-0.2-0.4-0.3c-0.1-0.2,0-0.4,0.1-0.5l2.2-2.6c0.2-0.3,0.8-0.2,0.9,0.2l0.8,3.3
					c0,0.2,0,0.4-0.1,0.5C130.8,25.2,130.6,25.3,130.5,25.3L130.5,25.3z M128.5,23.7l1.4,0.3l-0.4-1.5L128.5,23.7z"/>
			</g>
		</g>
	</g>
	<g>
		<g>
			<path class="st0" d="M74.5,33.9l2.3,5.3h-4h-4l2.3-5.3H74.5z"/>
		</g>
		<g>
			<path class="st0" d="M72.7,24.3l4,7.9h-2.3h-3.4h-2.3L72.7,24.3z"/>
		</g>
		<g>
			<g>
				<path d="M72.7,43.8c-0.7,0-1.3-0.6-1.3-1.3v-4c0-0.7,0.6-1.3,1.3-1.3c0.7,0,1.3,0.6,1.3,1.3v4C74.1,43.2,73.5,43.8,72.7,43.8z"
					/>
			</g>
			<g>
				<path d="M76.7,39.8h-7.9c-0.4,0-0.9-0.2-1.1-0.6c-0.2-0.4-0.3-0.8-0.1-1.3l2.3-5.3c0.3-0.7,1.1-1,1.7-0.7c0.7,0.3,1,1.1,0.7,1.7
					l-1.5,3.4h3.9l-1.5-3.4c-0.3-0.7,0-1.4,0.7-1.7c0.7-0.3,1.4,0,1.7,0.7l2.3,5.3c0.2,0.4,0.1,0.9-0.1,1.3
					C77.6,39.6,77.2,39.8,76.7,39.8L76.7,39.8z"/>
			</g>
			<g>
				<path d="M76.7,34.5h-7.9c-0.5,0-0.9-0.2-1.1-0.6c-0.2-0.4-0.3-0.9-0.1-1.3l4-7.9c0.4-0.9,1.9-0.9,2.4,0l4,7.9
					c0.2,0.4,0.2,0.9-0.1,1.3C77.6,34.3,77.2,34.5,76.7,34.5L76.7,34.5z M70.9,31.9h3.7l-1.8-3.7L70.9,31.9z"/>
			</g>
		</g>
	</g>
	<g>
		<g>
			<path class="st0" d="M11.7,7.4l1.7,4h-3h-3l1.7-4H11.7z"/>
		</g>
		<g>
			<path class="st0" d="M10.4,0.2l3,5.9h-1.7H9.1H7.4L10.4,0.2z"/>
		</g>
		<g>
			<g>
				<path d="M10.4,14.8c-0.5,0-1-0.4-1-1v-3c0-0.5,0.4-1,1-1s1,0.4,1,1v3C11.4,14.3,11,14.8,10.4,14.8z"/>
			</g>
			<g>
				<path d="M13.4,11.8H7.4c-0.3,0-0.6-0.2-0.8-0.4c-0.2-0.3-0.2-0.6-0.1-0.9l1.7-4C8.4,6,9,5.8,9.5,6C10,6.2,10.3,6.8,10,7.3
					L8.9,9.8h2.9l-1.1-2.6c-0.2-0.5,0-1.1,0.5-1.3c0.5-0.2,1.1,0,1.3,0.5l1.7,4c0.1,0.3,0.1,0.7-0.1,0.9
					C14,11.7,13.7,11.8,13.4,11.8L13.4,11.8z"/>
			</g>
			<g>
				<path d="M13.4,7.9H7.4c-0.3,0-0.7-0.2-0.8-0.5c-0.2-0.3-0.2-0.7,0-1l3-5.9c0.3-0.7,1.4-0.7,1.8,0l3,5.9c0.2,0.3,0.1,0.7,0,1
					C14,7.7,13.7,7.9,13.4,7.9L13.4,7.9z M9,5.9h2.7l-1.4-2.7L9,5.9z"/>
			</g>
		</g>
	</g>
	<g>
		<path class="st14" d="M111.2,50.3l-2-5.2c-0.1-0.2-0.1-0.4-0.1-0.6l0.2-4.4c0-0.7,0.5-1.2,1-1.1c0.5,0,0.9,0.6,0.9,1.2l-0.2,4.1
			l1.9,4.9c0.2,0.6,0,1.3-0.5,1.6C112,51.2,111.4,50.9,111.2,50.3z"/>
		<path class="st15" d="M106.5,51c-0.6,0-1-0.6-1-1.3l0.4-5.8c0-0.1,0-0.2,0-0.3l1.3-4.6c0.2-0.6,0.7-1,1.2-0.7
			c0.5,0.2,0.8,0.9,0.6,1.5l-1.2,4.5l-0.4,5.6C107.4,50.5,107,51,106.5,51z"/>
		<path class="st16" d="M111.2,41.8l-4.1-2.2l2.4-6.8c0.3-0.7,1-1.1,1.6-0.7l1.9,1c0.6,0.3,0.9,1.2,0.6,1.9L111.2,41.8z"/>
		<path class="st17" d="M115,30.1c0,1.2-0.8,2.1-1.7,2.1c-1,0-1.7-1-1.7-2.1c0-1.2,0.8-2.1,1.7-2.1C114.2,28,115,29,115,30.1z"/>
		<path class="st18" d="M108.2,40l-4.9-1.1c-0.3-0.1-0.6-0.5-0.5-0.9l1.1-7.5c0.1-0.4,0.4-0.7,0.7-0.6l4.9,1.1
			c0.3,0.1,0.6,0.5,0.5,0.9l-1.1,7.5C108.9,39.8,108.6,40,108.2,40z"/>
		<path class="st17" d="M107.1,40.3c-0.2-0.5-0.1-1,0.3-1.3l2.5-1.8l1.1-3.5c0.1-0.5,0.6-0.7,1-0.6c0.4,0.2,0.6,0.7,0.5,1.2
			l-1.1,3.8c-0.1,0.2-0.2,0.4-0.3,0.5l-2.8,2C107.8,40.9,107.3,40.7,107.1,40.3z"/>
		<path class="st19" d="M111.9,35.9l0.5-1.6c0.1-0.5-0.1-1-0.5-1.2c-0.4-0.2-0.8,0.1-1,0.6l-0.5,1.6L111.9,35.9z"/>
	</g>
</g>
</svg>
