<svg xmlns="http://www.w3.org/2000/svg" xmlns:xlink="http://www.w3.org/1999/xlink" width="691" height="969" viewBox="0 0 691 969">
  <defs>
    <linearGradient id="linear-gradient" x1="0.5" x2="0.5" y2="1" gradientUnits="objectBoundingBox">
      <stop offset="0" stop-color="#eeedee"/>
      <stop offset="0.5" stop-color="#f7f8fa"/>
      <stop offset="0.89" stop-color="#f1f0f2"/>
      <stop offset="1" stop-color="#f2f3f3"/>
    </linearGradient>
    <filter id="Ellipse_4271" x="348" y="741" width="228" height="228" filterUnits="userSpaceOnUse">
      <feOffset dy="10" input="SourceAlpha"/>
      <feGaussianBlur stdDeviation="25" result="blur"/>
      <feFlood flood-opacity="0.098"/>
      <feComposite operator="in" in2="blur"/>
      <feComposite in="SourceGraphic"/>
    </filter>
  </defs>
  <g id="Group_46379" data-name="Group 46379" transform="translate(-1009 -2742)">
    <g id="Group_46312" data-name="Group 46312" transform="translate(815 1119)">
      <g id="Group_46307" data-name="Group 46307" transform="translate(0 103)">
        <rect id="Rectangle_410" data-name="Rectangle 410" width="665" height="805" rx="60" transform="translate(220 1558)" fill="url(#linear-gradient)"/>
        <g id="Group_46330" data-name="Group 46330" transform="translate(232.081 1518.972)">
          <path id="Path_100495" data-name="Path 100495" d="M236.4,255.571a58.642,58.642,0,1,1,58.642,58.642A58.642,58.642,0,0,1,236.4,255.571Z" transform="translate(178.911 202.266)" fill="#f25630" fill-rule="evenodd"/>
          <path id="Path_100496" data-name="Path 100496" d="M275.788,187.689a47.039,47.039,0,1,1,47.038,47.04A47.037,47.037,0,0,1,275.788,187.689Z" transform="translate(225.912 135.116)" fill="#ffc750" fill-rule="evenodd"/>
          <path id="Path_100497" data-name="Path 100497" d="M213.011,133.7a57.607,57.607,0,1,1,57.607,57.611A57.607,57.607,0,0,1,213.011,133.7Z" transform="translate(151.007 58.085)" fill="#b5b5b5" fill-rule="evenodd"/>
          <path id="Path_100498" data-name="Path 100498" d="M201.226,208.835a47.441,47.441,0,1,1,47.441,47.441A47.441,47.441,0,0,1,201.226,208.835Z" transform="translate(136.945 159.864)" fill="#ffc750" fill-rule="evenodd"/>
          <path id="Path_100499" data-name="Path 100499" d="M180.373,283.387a54.464,54.464,0,1,1,54.464,54.466A54.463,54.463,0,0,1,180.373,283.387Z" transform="translate(112.063 240.442)" fill="#ffc750" fill-rule="evenodd"/>
          <path id="Path_100500" data-name="Path 100500" d="M165.562,163.24a48.35,48.35,0,1,1,48.351,48.353A48.35,48.35,0,0,1,165.562,163.24Z" transform="translate(94.39 104.379)" fill="#f25630" fill-rule="evenodd"/>
          <path id="Path_100501" data-name="Path 100501" d="M232.9,173.221a43.051,43.051,0,1,1,43.05,43.052A43.052,43.052,0,0,1,232.9,173.221Z" transform="translate(174.736 122.607)" fill="#f25630" fill-rule="evenodd"/>
          <path id="Path_100502" data-name="Path 100502" d="M159.127,321.773a44.769,44.769,0,1,1,44.768,44.77A44.766,44.766,0,0,1,159.127,321.773Z" transform="translate(86.712 297.811)" fill="#f25630" fill-rule="evenodd"/>
          <path id="Path_100503" data-name="Path 100503" d="M228.937,293.583a35.73,35.73,0,1,1,35.732,35.729A35.733,35.733,0,0,1,228.937,293.583Z" transform="translate(170.009 274.958)" fill="#b5b5b5" fill-rule="evenodd"/>
          <path id="Path_100504" data-name="Path 100504" d="M265.977,141.13a43.531,43.531,0,1,1,43.528,43.533A43.528,43.528,0,0,1,265.977,141.13Z" transform="translate(214.206 83.746)" fill="#f25630" fill-rule="evenodd"/>
          <path id="Path_100505" data-name="Path 100505" d="M222.822,75.172a35.3,35.3,0,1,1,35.3,35.306A35.3,35.3,0,0,1,222.822,75.172Z" transform="translate(162.713 14.864)" fill="#f25630" fill-rule="evenodd"/>
          <path id="Path_100506" data-name="Path 100506" d="M204.424,310.167a28.571,28.571,0,1,1,28.569,28.573A28.571,28.571,0,0,1,204.424,310.167Z" transform="translate(140.761 303.291)" fill="#ffc750" fill-rule="evenodd"/>
          <path id="Path_100507" data-name="Path 100507" d="M186.531,229.3a26.425,26.425,0,1,1,26.424,26.426A26.423,26.423,0,0,1,186.531,229.3Z" transform="translate(119.411 209.358)" fill="#3a5c7f" fill-rule="evenodd"/>
          <path id="Path_100508" data-name="Path 100508" d="M146.22,175.724a26.394,26.394,0,1,1,26.393,26.4A26.392,26.392,0,0,1,146.22,175.724Z" transform="translate(71.312 145.472)" fill="#ffc750" fill-rule="evenodd"/>
          <path id="Path_100509" data-name="Path 100509" d="M279.17,205.066a18.88,18.88,0,1,1,18.879,18.881A18.881,18.881,0,0,1,279.17,205.066Z" transform="translate(229.947 189.449)" fill="#b5b5b5" fill-rule="evenodd"/>
          <path id="Path_100510" data-name="Path 100510" d="M254.5,195.562a25.2,25.2,0,1,1,25.2,25.2A25.2,25.2,0,0,1,254.5,195.562Z" transform="translate(200.516 170.573)" fill="#b5b5b5" fill-rule="evenodd"/>
          <path id="Path_100511" data-name="Path 100511" d="M261.638,270.047a18.015,18.015,0,1,1,18.015,18.015A18.015,18.015,0,0,1,261.638,270.047Z" transform="translate(209.028 268.013)" fill="#ffc750" fill-rule="evenodd"/>
          <path id="Path_100512" data-name="Path 100512" d="M319.7,186.557a27.45,27.45,0,1,1,27.45,27.45A27.45,27.45,0,0,1,319.7,186.557Z" transform="translate(278.314 157.135)" fill="#f25630" fill-rule="evenodd"/>
          <path id="Path_100513" data-name="Path 100513" d="M255.509,76.294a16.879,16.879,0,1,1,16.879,16.879A16.88,16.88,0,0,1,255.509,76.294Z" transform="translate(201.715 38.182)" fill="#ffc750" fill-rule="evenodd"/>
          <path id="Path_100514" data-name="Path 100514" d="M172.454,186.508a25.611,25.611,0,1,1,25.612,25.612A25.611,25.611,0,0,1,172.454,186.508Z" transform="translate(102.614 159.274)" fill="#b5b5b5" fill-rule="evenodd"/>
          <path id="Path_100515" data-name="Path 100515" d="M264.654,97.267A21.943,21.943,0,1,1,286.6,119.21,21.942,21.942,0,0,1,264.654,97.267Z" transform="translate(212.627 57.167)" fill="#b5b5b5" fill-rule="evenodd"/>
          <path id="Path_100516" data-name="Path 100516" d="M187.8,115.51a25.255,25.255,0,1,1,25.255,25.255A25.255,25.255,0,0,1,187.8,115.51Z" transform="translate(120.928 74.983)" fill="#ffc750" fill-rule="evenodd"/>
          <path id="Path_100517" data-name="Path 100517" d="M319.808,155.179a12.1,12.1,0,1,1,12.1,12.1A12.1,12.1,0,0,1,319.808,155.179Z" transform="translate(278.437 138.01)" fill="#b5b5b5" fill-rule="evenodd"/>
          <path id="Path_100518" data-name="Path 100518" d="M303.958,143.3a17.478,17.478,0,1,1,17.478,17.478A17.476,17.476,0,0,1,303.958,143.3Z" transform="translate(259.524 117.426)" fill="#ffc750" fill-rule="evenodd"/>
          <path id="Path_100519" data-name="Path 100519" d="M140.668,324.253a21.409,21.409,0,1,1,21.41,21.41A21.41,21.41,0,0,1,140.668,324.253Z" transform="translate(64.687 328.641)" fill="#ffc750" fill-rule="evenodd"/>
          <path id="Path_100520" data-name="Path 100520" d="M215.649,231.295a20.729,20.729,0,1,1,20.73,20.728A20.727,20.727,0,0,1,215.649,231.295Z" transform="translate(154.154 218.542)" fill="#b5b5b5" fill-rule="evenodd"/>
          <path id="Path_100521" data-name="Path 100521" d="M210.832,135.391a12.015,12.015,0,1,1,12.017,12.017A12.015,12.015,0,0,1,210.832,135.391Z" transform="translate(148.407 114.504)" fill="#b5b5b5" fill-rule="evenodd"/>
          <path id="Path_100522" data-name="Path 100522" d="M208.952,81.806a17.5,17.5,0,1,1,17.5,17.5A17.5,17.5,0,0,1,208.952,81.806Z" transform="translate(146.163 44.027)" fill="#b5b5b5" fill-rule="evenodd"/>
          <path id="Path_100523" data-name="Path 100523" d="M187.62,202.209a14.142,14.142,0,1,1,14.142,14.144A14.139,14.139,0,0,1,187.62,202.209Z" transform="translate(120.71 191.695)" fill="#f25630" fill-rule="evenodd"/>
          <path id="Path_100524" data-name="Path 100524" d="M210.586,158.647a21.142,21.142,0,1,1,21.14,21.147A21.14,21.14,0,0,1,210.586,158.647Z" transform="translate(148.113 131.364)" fill="#b5b5b5" fill-rule="evenodd"/>
          <path id="Path_100525" data-name="Path 100525" d="M232.766,256.287a12.876,12.876,0,1,1,12.876,12.881A12.876,12.876,0,0,1,232.766,256.287Z" transform="translate(174.578 257.731)" fill="#f25630" fill-rule="evenodd"/>
          <path id="Path_100526" data-name="Path 100526" d="M135.2,184.316a14.078,14.078,0,1,1,14.078,14.08A14.078,14.078,0,0,1,135.2,184.316Z" transform="translate(58.159 170.421)" fill="#b5b5b5" fill-rule="evenodd"/>
          <path id="Path_100527" data-name="Path 100527" d="M235.983,38.844a11.431,11.431,0,1,1,11.431,11.431A11.431,11.431,0,0,1,235.983,38.844Z" transform="translate(178.417 0)" fill="#ffc750" fill-rule="evenodd"/>
          <path id="Path_100528" data-name="Path 100528" d="M201.867,89.059a9.088,9.088,0,1,1,9.086,9.089A9.087,9.087,0,0,1,201.867,89.059Z" transform="translate(137.71 62.715)" fill="#f25630" fill-rule="evenodd"/>
          <path id="Path_100529" data-name="Path 100529" d="M130.2,323.881a10.145,10.145,0,1,1,10.146,10.144A10.145,10.145,0,0,1,130.2,323.881Z" transform="translate(52.199 341.639)" fill="#f25630" fill-rule="evenodd"/>
          <path id="Path_100530" data-name="Path 100530" d="M246.077,196.465a9.086,9.086,0,1,1,9.086,9.089A9.087,9.087,0,0,1,246.077,196.465Z" transform="translate(190.461 190.871)" fill="#b5b5b5" fill-rule="evenodd"/>
          <path id="Path_100531" data-name="Path 100531" d="M160.6,183.685a9.088,9.088,0,1,1,9.086,9.086A9.087,9.087,0,0,1,160.6,183.685Z" transform="translate(88.473 175.622)" fill="#f25630" fill-rule="evenodd"/>
          <path id="Path_100532" data-name="Path 100532" d="M277.372,81.021h0Zm7.264,23.577H272.931a1.729,1.729,0,0,1-1.728-1.724l0-21.509a1.729,1.729,0,0,1,1.724-1.726h11.707a1.731,1.731,0,0,1,1.726,1.726v21.507a1.73,1.73,0,0,1-1.728,1.726Zm-1.349-20.976h-9.01v15.8h9.01v-15.8ZM277.372,81.6a.58.58,0,1,1,0-1.16h2.82a.58.58,0,1,1,0,1.16Zm7.466,18.68V82.764a.23.23,0,0,0-.024-.1.774.774,0,0,0-.75-.588H273.5a.779.779,0,0,0-.755.588.271.271,0,0,0-.022.1l0,.048,0,.035V100.2l0,.035v.048a.262.262,0,0,0,.02.1.779.779,0,0,0,.755.588h10.56a.772.772,0,0,0,.75-.586.246.246,0,0,0,.024-.105Zm-5.428,1.572a.884.884,0,0,0-1.255,0,.888.888,0,1,0,1.255,0Z" transform="translate(220.441 62.316)" fill="#fff" fill-rule="evenodd"/>
          <path id="Path_100533" data-name="Path 100533" d="M242.021,267.253h31.508a2.346,2.346,0,0,1,2.338,2.338v19.364a2.346,2.346,0,0,1-2.338,2.338H242.021a2.344,2.344,0,0,1-2.338-2.338V269.591a2.344,2.344,0,0,1,2.338-2.338ZM278.873,293.3H236.766a2.1,2.1,0,0,0-2.09,2.09h0a2.1,2.1,0,0,0,2.088,2.09h42.109a2.1,2.1,0,0,0,2.09-2.09h0a2.1,2.1,0,0,0-2.09-2.09Zm-4.046,2.967H260.354a.88.88,0,0,1-.877-.877h0a.878.878,0,0,1,.875-.877h14.473a.878.878,0,0,1,.875.877h0a.878.878,0,0,1-.875.877Zm-2.779-24.72H243.5v15.765h28.547V271.543Zm-29.6-2.1a1.051,1.051,0,0,0-1.051,1.05v17.864a1.049,1.049,0,0,0,1.051,1.048H273.1a1.05,1.05,0,0,0,1.051-1.048V270.495a1.051,1.051,0,0,0-1.051-1.05Z" transform="translate(176.857 286.177)" fill="#fff" fill-rule="evenodd"/>
          <path id="Path_100534" data-name="Path 100534" d="M181.708,156.536H152.686a1.932,1.932,0,0,0-1.926,1.836l15.458,11.685a1.6,1.6,0,0,0,1.961,0l15.46-11.685a1.941,1.941,0,0,0-1.93-1.836Zm1.932,17.225-8.773-6.63,8.773-6.637v13.267Zm-.566,3.393a1.935,1.935,0,0,1-1.366.568H152.686a1.932,1.932,0,0,1-1.926-1.836l10.176-7.694,4.777,3.61a2.429,2.429,0,0,0,2.97,0l4.777-3.61,10.179,7.694a1.919,1.919,0,0,1-.566,1.268Zm-32.317-16.66,8.773,6.637-8.773,6.63Z" transform="translate(76.726 154.07)" fill="#fff" fill-rule="evenodd"/>
          <path id="Path_100535" data-name="Path 100535" d="M262.371,204.914h19.381a1.469,1.469,0,0,0,1.465-1.465V177.7a1.467,1.467,0,0,0-1.465-1.463h-5.007v2.634h3.737V202.28H263.641V178.868h3.737v-2.634h-5.007a1.466,1.466,0,0,0-1.465,1.463v25.753a1.468,1.468,0,0,0,1.465,1.465Zm12.688-29.867a1.351,1.351,0,0,1,.864.292.861.861,0,0,1,.336.656V179.7a.861.861,0,0,1-.336.656,1.352,1.352,0,0,1-.864.294h-5.992a1.358,1.358,0,0,1-.866-.294.861.861,0,0,1-.336-.656v-3.706a.861.861,0,0,1,.336-.656,1.357,1.357,0,0,1,.866-.292Zm-5.187,1.213h4.38a1.144,1.144,0,0,1,.724.252v0a.845.845,0,0,1,.327.656v1.18a.85.85,0,0,1-.327.658h0a1.132,1.132,0,0,1-.724.252h-4.38a1.132,1.132,0,0,1-.724-.252h0a.85.85,0,0,1-.327-.658v-1.18a.845.845,0,0,1,.327-.656v0a1.144,1.144,0,0,1,.724-.252Zm-3.366,19.851h11.113a.6.6,0,0,1,.6.6h0a.6.6,0,0,1-.6.6H266.505a.6.6,0,0,1-.6-.6h0a.6.6,0,0,1,.6-.6Zm11.128-2.235H266.475v0h-.031v0h-.015v0h-.015l-.013,0h-.015v0l-.015,0v0l-.013,0h0l-.015,0v0l-.015,0v0l-.013,0v0l-.013,0h0l-.015,0h0l-.011-.007h0l-.015,0v0l-.013,0h0l-.013-.007-.013-.007-.011-.009-.013-.007h0l-.013-.009h0l-.011-.007v0l-.011-.007h0l-.013-.009h0l-.011-.009-.011-.009h0l-.011-.009h0l-.011-.009v0l-.011-.009h0l-.011-.009-.009-.013-.011-.009v0l-.009-.009h0l-.009-.011v0l-.009-.011-.011-.011h0l-.009-.011-.007-.011L266,193.6h0l-.009-.013-.007-.011h0l-.007-.013-.007-.013-.007-.013h0l-.007-.013-.007-.013-.007-.013,0-.015,0-.013,0-.013,0-.015,0-.015,0-.013,0-.015,0-.013,0-.015,0-.015,0-.015v-.015l0-.015,0-.013v-.018a.605.605,0,0,1,.6-.6h11.113a.605.605,0,0,1,.6.6v.018l0,.013v.015l0,.015,0,.015,0,.015,0,.015,0,.013,0,.015,0,.013,0,.015,0,.015,0,.013,0,.013-.007.015,0,.013-.007.013-.007.013h0l-.007.013,0,.013-.009.013h0l-.007.011-.009.013h0l-.009.013-.007.011-.009.011h0l-.009.011-.009.011v0l-.009.011h0l-.011.009v0l-.011.009-.009.013-.011.009h0l-.009.009v0l-.013.009h0l-.011.009h0l-.011.009-.011.009h0l-.011.009h0l-.013.007v0l-.011.007h0l-.013.009h0l-.013.007-.011.009-.013.007-.013.007h0l-.013,0v0l-.013,0h0l-.013.007h0l-.015,0h0l-.013,0v0l-.013,0v0l-.015,0v0l-.013,0h0l-.015,0v0l-.013,0v0h-.015l-.015,0h-.015v0h-.015v0h-.031v0Zm.588-.6Zm-12.319,0Zm.6-4.04h11.113a.6.6,0,0,1,.6.6h0a.6.6,0,0,1-.6.6H266.505a.6.6,0,0,1-.6-.6h0a.6.6,0,0,1,.6-.6Zm0-3.439h11.113a.606.606,0,0,1,.6.6h0a.6.6,0,0,1-.6.6H266.505a.6.6,0,0,1-.6-.6h0a.606.606,0,0,1,.6-.6Zm0-3.237h11.113a.606.606,0,0,1,.6.6h0a.6.6,0,0,1-.6.6H266.505a.6.6,0,0,1-.6-.6h0a.606.606,0,0,1,.6-.6Zm2.8-3.689v-1.7a.378.378,0,0,1,.147-.283h0a.659.659,0,0,1,.414-.138h4.38a.65.65,0,0,1,.414.138h0a.374.374,0,0,1,.149.283v1.7Z" transform="translate(208.155 176.157)" fill="#fff" fill-rule="evenodd"/>
          <path id="Path_100536" data-name="Path 100536" d="M279.118,139.793h13.609v-1.206H278.282a.449.449,0,0,1-.447-.447v-.075a.449.449,0,0,1,.447-.447h14.444v-1.206H278.282a.448.448,0,0,1-.447-.447v-.107a.448.448,0,0,1,.447-.447h14.444v-3.169H278.953a1.119,1.119,0,0,1-1.119-1.116V115.135a1.12,1.12,0,0,1,1.119-1.119h13.773v-3.167H279.118a3.339,3.339,0,0,0-3.334,3.331v22.279a3.339,3.339,0,0,0,3.334,3.334Zm15.124,0h7.128V128.985h0V117.271h0v-6.422h-7.128v6.422h0v22.522Zm8.643,0h13.609a3.339,3.339,0,0,0,3.334-3.334V114.18a3.339,3.339,0,0,0-3.334-3.331H302.885v3.167h13.773a1.12,1.12,0,0,1,1.118,1.119v15.988a1.119,1.119,0,0,1-1.118,1.116H302.885v3.169H317.33a.446.446,0,0,1,.447.447v.107a.446.446,0,0,1-.447.447H302.885v1.206H317.33a.448.448,0,0,1,.447.447v.075a.448.448,0,0,1-.447.447H302.885v1.206Zm-10.159-23.967v3.384a8.523,8.523,0,0,0,0,7.836v3.386a10.822,10.822,0,0,1,0-14.607Zm10.159,11.22a8.523,8.523,0,0,0,0-7.836v-3.384a10.822,10.822,0,0,1,0,14.607v-3.386Zm11.03-5.7a1.831,1.831,0,1,1-1.869,1.829,1.849,1.849,0,0,1,1.869-1.829Zm-2.645,8.722h4.762a.446.446,0,0,1,.447.447v.59a.447.447,0,0,1-.447.447H311.27a.448.448,0,0,1-.447-.447v-.59a.448.448,0,0,1,.447-.447Zm0-15.287h4.762a.448.448,0,0,1,.447.447v.592a.448.448,0,0,1-.447.447H311.27a.449.449,0,0,1-.447-.447v-.592a.449.449,0,0,1,.447-.447Zm-17.028,14.2ZM281.7,121.346a1.831,1.831,0,1,1-1.869,1.829,1.85,1.85,0,0,1,1.869-1.829Zm2.645,8.722a.448.448,0,0,1,.447.447v.59a.448.448,0,0,1-.447.447H279.58a.447.447,0,0,1-.447-.447v-.59a.446.446,0,0,1,.447-.447Zm0-15.287a.449.449,0,0,1,.447.447v.592a.449.449,0,0,1-.447.447H279.58a.448.448,0,0,1-.447-.447v-.592a.448.448,0,0,1,.447-.447Z" transform="translate(225.907 99.556)" fill="#fff" fill-rule="evenodd"/>
          <path id="Path_100537" data-name="Path 100537" d="M241.861,232.454h-6.343a1.563,1.563,0,1,1,0-3.117h6.343a1.563,1.563,0,1,1,0,3.117Zm-2.976-50.711a16.891,16.891,0,0,1,17.085,16.644c0,8.632-4.046,8.718-6.27,14.091-1.077,2.614-1.145,8.529-4.979,8.529H233.047c-3.8,0-3.946-6.016-4.979-8.529-1.656-4.016-4.957-5.483-5.937-10.387a16.9,16.9,0,0,1,16.754-20.349Zm4.781,34.666a8.349,8.349,0,0,0,1.23-3.09c1.483-5.805,5.369-7.821,6.24-12.231a12.463,12.463,0,1,0-24.5,0c.882,4.454,4.718,6.275,6.242,12.231a8.362,8.362,0,0,0,1.228,3.09h1.855a45.268,45.268,0,0,0-.272-7.365A31.3,31.3,0,0,0,233.194,201h0c-.921-1.88-.013-3.248,1.643-4.057h0a9.393,9.393,0,0,1,3.689-.831,9.889,9.889,0,0,1,3.81.561c1.893.728,3.064,2.147,2.233,4.31l0,.009a31.373,31.373,0,0,0-2.5,8.062,45.446,45.446,0,0,0-.27,7.356Zm-5.617,0H239.7a50.413,50.413,0,0,1,.285-7.724,32.265,32.265,0,0,1,2.406-8.282,2.114,2.114,0,0,0-1.518-1.616,5.443,5.443,0,0,0-1.864-.327,5.981,5.981,0,0,0-1.915.289,2.444,2.444,0,0,0-1.833,1.735,33.276,33.276,0,0,1,2.47,8.242,46.762,46.762,0,0,1,.322,7.683Zm6.737,8.453H232.981c-1.86,0-1.86-3.116,0-3.116h11.806c1.86,0,1.86,3.116,0,3.116Zm-28.544-24.13h-5.178c-2.226,0-2.226-5.246,0-5.246h5.178c2.272,0,2.141,5.246,0,5.246Zm27.448,27.933H233.635c-1.855,0-1.862-3.114,0-3.114H243.69c1.86,0,1.855,3.114,0,3.114Zm9.35-48.415c-1.616,1.625,2.228,5.185,3.709,3.7l3.8-3.8c1.548-1.548-2.16-5.257-3.709-3.709l-3.8,3.8h0v0Zm8.486,15.236h5.264c2.274,0,2.143,5.246,0,5.246h-5.264c-2.156,0-2.235-5.246,0-5.246Zm-40.5-11.532c1.557,1.551,5.244-2.165,3.7-3.706h0l-3.753-3.755v0h0c-1.5-1.5-5.31,2.09-3.707,3.7v0h0l3.757,3.759Zm15.234-8.488v-5.4c0-2.125,5.246-2.255,5.246,0v5.4C241.506,177.609,236.26,177.74,236.26,175.466Z" transform="translate(146.692 168.259)" fill="#fff" fill-rule="evenodd"/>
          <path id="Path_100538" data-name="Path 100538" d="M153.95,306.486a9.642,9.642,0,0,1,8.635,13.922,3.264,3.264,0,0,1,.553.439l7.093,7.093a3.162,3.162,0,0,1,0,4.459h0a3.162,3.162,0,0,1-4.459,0l-7.093-7.093a3.161,3.161,0,0,1-.439-.55,9.638,9.638,0,1,1-4.29-18.269Zm4.72,4.917a6.68,6.68,0,1,0,1.954,4.72A6.663,6.663,0,0,0,158.67,311.4Z" transform="translate(69.034 332.99)" fill="#fff" fill-rule="evenodd"/>
          <g id="Group_46328" data-name="Group 46328" transform="translate(434.518 276.221)">
            <path id="Path_100539" data-name="Path 100539" d="M245.156,140.858c1.678,8.832,1.948,21.079,9.79,23.38,6.466,1.562,4.834,8.284,1.393,8.959l-4.915.967h19.8l-4.911-.958c-3.441-.669-5.086-7.4,1.388-8.968,7.843-2.3,8.113-14.548,9.793-23.38Zm6.621,2.092c.154,1.6.3,3.2.456,4.8.412,4.134,1.064,11.1,3.257,14.469-5.112-1.546-6.336-9.692-7.053-14.124-.276-1.711-.518-3.428-.794-5.141Zm15.409,19.256c2.081-3.244,2.8-10.194,3.226-14.458.158-1.6.3-3.2.456-4.8H275c-.276,1.713-.518,3.432-.794,5.143-.636,3.937-1.733,10.492-5.073,13.1A5.974,5.974,0,0,1,267.187,162.207Z" transform="translate(-245.156 -140.858)" fill="#fff" fill-rule="evenodd"/>
            <rect id="Rectangle_417" data-name="Rectangle 417" width="23.272" height="4.939" transform="translate(4.531 34.276)" fill="#fff"/>
          </g>
          <path id="Path_100540" data-name="Path 100540" d="M235.846,287.918a14,14,0,0,1,3.1,2.327l.048.053a13.93,13.93,0,0,1,2.279,3.049,3.588,3.588,0,0,1-.6,4.318l0,0h0L222.849,315.49a.911.911,0,0,1-.428.241l-10.977,3.145a.913.913,0,0,1-1.13-1.134l3.145-10.975a.905.905,0,0,1,.252-.441l17.811-17.811a3.594,3.594,0,0,1,4.323-.6Zm-22.053,24.325a10.528,10.528,0,0,1,3.255,3.125l4.062-1.165-.678-2.851-3.459.316-.138.011h0a.912.912,0,0,1-.936-.421l-1.241-2.02-.862,3Zm26.095-17.4L222.7,312.027l.134.886,16.541-16.541,0,0a1.807,1.807,0,0,0,.515-1.02,1.679,1.679,0,0,0-.007-.513Zm-23.193,14.216L235.756,290c-.259-.169-.524-.331-.8-.485a1.817,1.817,0,0,0-1.123-.217,1.8,1.8,0,0,0-1.018.518l-17.311,17.313Z" transform="translate(147.746 310.278)" fill="#fff" fill-rule="evenodd"/>
          <path id="Path_100541" data-name="Path 100541" d="M231.959,83.815a1.318,1.318,0,0,1-1.32-1.32V48.8a.446.446,0,0,1,.445-.445h1.75a.447.447,0,0,1,.447.445V81.172h32.369a.447.447,0,0,1,.445.447v1.75a.446.446,0,0,1-.445.445Zm3.474-8.341a1.563,1.563,0,0,0,.281,2.189l1.151.893a1.566,1.566,0,0,0,2.191-.283l7.667-9.926,9.051-.026a2.27,2.27,0,0,0,1.91-1.037l4.6-8.073.1,2.713a1.564,1.564,0,0,0,1.614,1.5l1.456-.053a1.561,1.561,0,0,0,1.5-1.614q-.25-7.007-.5-14.017l-12.6,6.172a1.569,1.569,0,0,0-.715,2.09l.643,1.307a1.564,1.564,0,0,0,2.088.715l2.52-1.235-3.93,6.952-8.856.026A2.274,2.274,0,0,0,244.6,64a2.335,2.335,0,0,0-.811.658Z" transform="translate(172.04 24.258)" fill="#fff" fill-rule="evenodd"/>
          <path id="Path_100542" data-name="Path 100542" d="M224.349,237.713A35.187,35.187,0,1,0,259.534,272.9a35.185,35.185,0,0,0-35.185-35.186Zm.772,36.227h26.871a.818.818,0,0,1,.818.873,28.509,28.509,0,0,1-47.231,19.566.818.818,0,0,1-.039-1.2l19-19a.792.792,0,0,1,.581-.241Zm-15.578,19.627,16.524-16.524h23.369a25.039,25.039,0,0,1-1.588,5.579,25.4,25.4,0,0,1-38.3,10.944Zm12.9-49.128a.818.818,0,0,1,.873.818v26.867a.793.793,0,0,1-.239.581l-19.006,19a.815.815,0,0,1-1.2-.039,28.338,28.338,0,0,1-4.88-7.839,28.536,28.536,0,0,1,24.448-39.392Zm6.534,27.419h-2.763a.821.821,0,0,1-.818-.82v-2.763l3.581,3.584Zm8.893,0h-5.948l-6.527-6.527v-5.948l12.475,12.475Zm8.893,0h-5.948l-15.42-15.42v-5.948l21.368,21.368Zm5.821-3.075c.1.726.182,1.458.23,2.2a.818.818,0,0,1-.818.873H249.7L225.39,247.545v-2.29a.815.815,0,0,1,.873-.816c.741.048,1.476.125,2.2.23l24.116,24.114Zm-20.373-23.316a28.629,28.629,0,0,1,18.508,16.519,28.234,28.234,0,0,1,1.064,3.055l-19.572-19.574Zm-7.858-3.132A30.563,30.563,0,1,1,193.786,272.9,30.563,30.563,0,0,1,224.349,242.336Z" transform="translate(122.551 250.93)" fill="#fff" fill-rule="evenodd"/>
          <path id="Path_100543" data-name="Path 100543" d="M318.639,182.9a.353.353,0,0,1,.447-.215.352.352,0,0,1,.2.18l.015.035,5.055-5.055a.594.594,0,0,1,.84.84l-5.726,5.724.8.594a.836.836,0,1,1-1,1.34l-.871-.649-2.68,7.582a.351.351,0,0,1-.662-.232l2.34-6.621a.595.595,0,0,1-.818-.55.588.588,0,0,1,.175-.419l.566-.566-4.6-3.435a.835.835,0,0,1-.171-1.171.835.835,0,0,1,1.169-.169l4.674,3.492.248-.7Zm-12.734-6.5a1.1,1.1,0,0,1-.143-.164,3.137,3.137,0,0,1-.373-1.776,2.837,2.837,0,0,1,.869-2.443,6.35,6.35,0,0,1,3.4-.621,15.533,15.533,0,0,1,1.63.075,15.049,15.049,0,0,0-2.513,1.708,2.042,2.042,0,0,0-.893.213c-.191.134-.3.447-.333.941a14.966,14.966,0,0,0-1.645,2.068Zm13.207-9.894v3.235a14.965,14.965,0,0,1,2.018.243V157.659a2.9,2.9,0,0,0-2.893-2.893h-2v3.746a1.56,1.56,0,0,1-1.557,1.557h-1.147a1.56,1.56,0,0,1-1.557-1.557v-3.746H296.078v3.746a1.56,1.56,0,0,1-1.557,1.557h-1.145a1.561,1.561,0,0,1-1.559-1.557v-3.746h-2a2.9,2.9,0,0,0-2.891,2.893v31.334a2.9,2.9,0,0,0,2.891,2.9h15.517c-.217-.39-.419-.792-.6-1.2H288.939V190.4H304.6q-.247-.589-.445-1.2H288.939v-.219h15.151c-.121-.395-.224-.794-.311-1.2h-14.4a.445.445,0,0,1-.443-.445V166.506a.445.445,0,0,1,.443-.445h29.286a.447.447,0,0,1,.445.445Zm-5.022-15.133h.022a1.113,1.113,0,0,1,1.112,1.112v5.384a1.113,1.113,0,0,1-1.112,1.112h-.022a1.115,1.115,0,0,1-1.112-1.112v-5.384a1.115,1.115,0,0,1,1.112-1.112Zm-20.153,0h.022a1.115,1.115,0,0,1,1.112,1.112v5.384a1.115,1.115,0,0,1-1.112,1.112h-.022a1.115,1.115,0,0,1-1.112-1.112v-5.384a1.115,1.115,0,0,1,1.112-1.112Zm9.277,29.856v1.722h-8.668v-2.334a3.284,3.284,0,0,1,.651-2.408,7.049,7.049,0,0,1,3.095-1.035,7.442,7.442,0,0,0,2.4-.656c.25-.2.373-.713.373-1.542,0-.794-.123-1.3-.373-1.511a3.151,3.151,0,0,0-1.776-.318,3.232,3.232,0,0,0-1.823.322c-.252.215-.379.735-.379,1.566l-.009.485h-2.123v-.478a3.7,3.7,0,0,1,.888-2.9,5.682,5.682,0,0,1,3.454-.744,5.485,5.485,0,0,1,3.395.754,3.662,3.662,0,0,1,.895,2.873,3.84,3.84,0,0,1-.682,2.678,6.579,6.579,0,0,1-3.136,1.127,8.187,8.187,0,0,0-2.356.625c-.217.173-.327.66-.327,1.465v.311Zm6.672-19.331h.733l0,.118c0,.59-.447.886-1.338.886a1.628,1.628,0,0,1-1.186-.309,2.073,2.073,0,0,1-.281-1.309,1.78,1.78,0,0,1,.292-1.2,1.6,1.6,0,0,1,1.143-.3,1.488,1.488,0,0,1,1.092.3,1.78,1.78,0,0,1,.279,1.171l0,.224h-2.062c-.007.068-.009.114-.009.134a.91.91,0,0,0,.138.594.765.765,0,0,0,.555.147,1.037,1.037,0,0,0,.522-.086.438.438,0,0,0,.123-.371Zm-9.608-3.38v3a1.6,1.6,0,0,1-.279,1.112,1.652,1.652,0,0,1-1.125.274,1.782,1.782,0,0,1-1.173-.263,1.706,1.706,0,0,1-.268-1.156l.007-.322h.79c.011.162.018.283.018.364s0,.169.011.276c.013.265.221.4.627.4.241,0,.4-.048.467-.143a1.272,1.272,0,0,0,.1-.64v-2.9Zm3.448,1.3v3.046h-.73l.042-.522-.013,0a.929.929,0,0,1-.983.559.914.914,0,0,1-1.035-1.033v-2.046h.73v1.871a.824.824,0,0,0,.107.511.605.605,0,0,0,.45.123q.7,0,.7-.84v-1.665Zm.737,0h.724l-.029.513.015,0a.907.907,0,0,1,.956-.551q1.079,0,1.079,1v2.075h-.73v-1.95l-.018-.213q-.049-.342-.533-.342c-.491,0-.735.232-.735.7v1.807h-.73v-3.046Zm5.428,1.213h-1.327a.905.905,0,0,1,.123-.572.749.749,0,0,1,.531-.132.9.9,0,0,1,.546.11.638.638,0,0,1,.125.474l0,.121Zm15.936,16.179a10.462,10.462,0,1,0,2.283,3.413,10.562,10.562,0,0,0-2.283-3.413Zm-17.171-2.305a13.772,13.772,0,1,0,9.738-4.033A13.722,13.722,0,0,0,308.656,174.91Z" transform="translate(239.196 147.909)" fill="#fff" fill-rule="evenodd"/>
          <path id="Path_100544" data-name="Path 100544" d="M192.128,213.08v14.135a2.714,2.714,0,0,0,2.709,2.709h22.882a2.714,2.714,0,0,0,2.709-2.709V213.2a2.715,2.715,0,0,0-2.709-2.706h-1.57v1.8a1.348,1.348,0,0,1-1.349,1.349,1.62,1.62,0,0,1-1.349-1.349c0-.419.007-.182.024-.268V210.49H198.666v1.8a1.348,1.348,0,0,1-1.349,1.349,1.622,1.622,0,0,1-1.351-1.349c0-.419.009-.182.026-.268V210.49h-1.945a2.717,2.717,0,0,0-1.919,2.59Zm2.68,11.927c0-2.759,8.389-2.759,8.389,0v.746a.622.622,0,0,1-.618.618h-7.154a.619.619,0,0,1-.616-.618v-.746Zm4.2-2.687c-1.031,0-2.222-1.393-2.222-3.108s-.294-3.106,2.222-3.106,2.219,1.39,2.219,3.106-1.191,3.108-2.219,3.108Zm18.394-5.055a.348.348,0,1,1,0,.7H205.835a.348.348,0,0,1,0-.7Zm0,3.715a.349.349,0,1,1,0,.7H205.835a.349.349,0,0,1,0-.7Zm0,3.715a.349.349,0,1,1,0,.7H205.835a.349.349,0,0,1,0-.7Z" transform="translate(126.089 218.447)" fill="#fff" fill-rule="evenodd"/>
          <path id="Path_100545" data-name="Path 100545" d="M194.433,169.159q1.378,10.017,2.753,20.037a.959.959,0,0,0,1.077.816l4.985-.684a.956.956,0,0,0,.816-1.077l-2.75-20.037a.958.958,0,0,0-1.077-.816l-4.985.684a.959.959,0,0,0-.818,1.077Zm-2.081,20.98h-5.033a.958.958,0,0,1-.956-.956V168.959a.957.957,0,0,1,.956-.954h5.033a.956.956,0,0,1,.954.954v20.224a.958.958,0,0,1-.954.956Zm-8.121,0H179.2a.957.957,0,0,1-.954-.956V168.959a.955.955,0,0,1,.954-.954h5.033a.955.955,0,0,1,.954.954v20.224a.957.957,0,0,1-.954.956Zm15.644-7.055a1.358,1.358,0,0,1,1.529,1.156v0a1.354,1.354,0,0,1-1.156,1.526l0,0a1.356,1.356,0,0,1-.371-2.687Zm-1.478.081a2.089,2.089,0,0,1,3.733.978l0,.033h0a2.09,2.09,0,0,1-1.79,2.32l-.031,0h0a2.088,2.088,0,0,1-1.912-3.336Zm1.386-11.413-2.873.395a.272.272,0,0,1-.307-.232l-.044-.318a.273.273,0,0,1,.232-.307l2.873-.395a.272.272,0,0,1,.307.232l.044.318a.274.274,0,0,1-.232.307Zm-18.1,11.01a2.089,2.089,0,1,0,1.478.612,2.091,2.091,0,0,0-1.478-.612Zm.958,1.134a1.353,1.353,0,1,0,.4.956,1.349,1.349,0,0,0-.4-.956Zm-2.408-11.637h2.9a.272.272,0,0,0,.272-.274v-.32a.272.272,0,0,0-.272-.272h-2.9a.273.273,0,0,0-.272.272v.32a.274.274,0,0,0,.272.274Zm9.626,11.24a1.355,1.355,0,1,0,.956.4,1.345,1.345,0,0,0-.956-.4Zm-1.48-.125a2.091,2.091,0,1,0,1.48-.612,2.091,2.091,0,0,0-1.48.612Zm2.928-11.115a.274.274,0,0,0,.274-.274v-.32a.274.274,0,0,0-.274-.272h-2.9a.274.274,0,0,0-.274.272v.32a.274.274,0,0,0,.274.274Zm-11.073,2.981h2.9a.272.272,0,0,0,.272-.274v-.318a.272.272,0,0,0-.272-.274h-2.9a.274.274,0,0,0-.272.274v.318a.274.274,0,0,0,.272.274Zm0-1.491h2.9a.272.272,0,0,0,.272-.272v-.32a.271.271,0,0,0-.272-.272h-2.9a.272.272,0,0,0-.272.272v.32a.273.273,0,0,0,.272.272Zm11.073,1.491a.274.274,0,0,0,.274-.274v-.318a.274.274,0,0,0-.274-.274h-2.9a.274.274,0,0,0-.274.274v.318a.274.274,0,0,0,.274.274Zm0-1.491a.274.274,0,0,0,.274-.272v-.32a.272.272,0,0,0-.274-.272h-2.9a.272.272,0,0,0-.274.272v.32a.274.274,0,0,0,.274.272Zm8.878.958-2.873.393a.271.271,0,0,1-.307-.232l-.044-.316a.272.272,0,0,1,.232-.307l2.873-.395a.272.272,0,0,1,.307.232l.044.316a.277.277,0,0,1-.233.309Zm-.2-1.476-2.873.393a.273.273,0,0,1-.307-.232l-.044-.318a.276.276,0,0,1,.235-.307l2.871-.395a.274.274,0,0,1,.307.232l.044.318A.274.274,0,0,1,199.984,173.23Z" transform="translate(109.521 167.019)" fill="#fff" fill-rule="evenodd"/>
          <path id="Path_100546" data-name="Path 100546" d="M279.849,239.669c-2.621,0-5.246-1.812-7.2-4.476a16.538,16.538,0,0,1-3.226-9.457v-.081l.009-.039q-.013-.336-.013-.671c0-8.062-1.386-14.6,10.433-14.6s10.431,6.534,10.431,14.6c0,.224,0,.447-.013.669l.011.042v.081a16.526,16.526,0,0,1-3.228,9.457c-1.956,2.665-4.582,4.476-7.2,4.476Zm18.217,1.2a6.228,6.228,0,0,0,4.663-2.9,10.707,10.707,0,0,0,2.088-6.121V231.8l-.007-.029c.007-.143.009-.287.009-.432,0-4.7.726-8.6-4.718-9.325a10.455,10.455,0,0,0-2.035-.189,10.278,10.278,0,0,0-2.018.186c-5.468.722-4.737,4.621-4.737,9.328,0,.145,0,.289.009.434l-.007.026v.053a10.705,10.705,0,0,0,2.09,6.123,6.224,6.224,0,0,0,4.663,2.9Zm-3.9-3.459a9.737,9.737,0,0,1-1.9-5.512l.386-1.555a7.028,7.028,0,0,0,.158-1.568,2.932,2.932,0,0,1,.379-1.73c.265-.84,9.668-.864,9.755,0a2.913,2.913,0,0,1,.382,1.73,6.908,6.908,0,0,0,.16,1.568l.384,1.555a9.737,9.737,0,0,1-1.9,5.512,4.283,4.283,0,0,1-7.8,0Zm-32.521,3.459a6.228,6.228,0,0,0,4.663-2.9,10.707,10.707,0,0,0,2.088-6.121V231.8l-.007-.029c.007-.143.009-.287.009-.432,0-4.75.744-8.683-4.9-9.35a10.713,10.713,0,0,0-1.917-.165,10.426,10.426,0,0,0-2.147.211c-5.257.787-4.544,4.654-4.544,9.3,0,.145,0,.289.009.434l-.007.026v.053a10.705,10.705,0,0,0,2.09,6.123,6.224,6.224,0,0,0,4.663,2.9Zm-3.9-3.459a9.737,9.737,0,0,1-1.9-5.512l.386-1.555a6.9,6.9,0,0,0,.158-1.568,2.917,2.917,0,0,1,.382-1.73c.263-.84,9.665-.864,9.753,0a2.913,2.913,0,0,1,.382,1.73,6.913,6.913,0,0,0,.16,1.568l.384,1.555a9.737,9.737,0,0,1-1.9,5.512,4.283,4.283,0,0,1-7.8,0Zm24.222,9.271-1.171,2.176a1.013,1.013,0,0,0-.145.614l1.033,12.31a84.529,84.529,0,0,0,6.8-18.5c6.183,1.362,10.926,4.285,10.926,8.768l0,12.857a3.869,3.869,0,0,1-3.862,3.86H264.093a3.869,3.869,0,0,1-3.86-3.862V252.052c0-4.483,4.742-7.4,10.924-8.766a84.974,84.974,0,0,0,6.9,18.717l1.051-12.528a1.061,1.061,0,0,0-.145-.614l-1.169-2.176a.414.414,0,0,1-.013-.4.39.39,0,0,1,.349-.2h3.5a.39.39,0,0,1,.349.2.414.414,0,0,1-.011.4ZM310.5,256.719v-8.264c0-5.2-10.069-7.1-17.392-5.674,3.154,1.222,6.4,3.261,7.621,6.551a7.769,7.769,0,0,1,.485,2.72l0,6.746h7.211a2.085,2.085,0,0,0,2.079-2.079Zm-61.348,0a2.084,2.084,0,0,0,2.079,2.079h7.207v-6.746a7.736,7.736,0,0,1,.485-2.715c1.222-3.294,4.47-5.332,7.626-6.555-7.325-1.421-17.4.472-17.4,5.674v8.264Zm24.678-22.393c1.693,2.307,3.9,3.875,6.022,3.875s4.327-1.568,6.02-3.875a15.038,15.038,0,0,0,2.941-8.514l-.594-2.4a10.607,10.607,0,0,1-.246-2.421,4.526,4.526,0,0,0-.59-2.676c-.879-1.213-2.268-.82-3.9-.355a10.353,10.353,0,0,1-7.264,0h0c-1.632-.465-3.018-.858-3.9.355a4.526,4.526,0,0,0-.586,2.676,10.725,10.725,0,0,1-.246,2.421l-.594,2.4A15.052,15.052,0,0,0,273.827,234.326Z" transform="translate(194.126 218.278)" fill="#fff" fill-rule="evenodd"/>
          <path id="Path_100547" data-name="Path 100547" d="M285.6,101.982l2.434-3.68a.694.694,0,0,1,.3-.259l10.85-4.965a.726.726,0,0,1,.906,1.064L296.6,99.372l6.67,1.143a.726.726,0,0,1,.18,1.375l-11.023,5.044a.685.685,0,0,1-.428.053l-4.871-.858-15.517,7.1,1.283,2.8a.608.608,0,0,1-.485.855l-16.438,1.838a.725.725,0,0,1-.572-1.255q6-5.563,12.014-11.126a.729.729,0,0,1,1.154.23l1.211,2.652,15.824-7.242Zm-30.729,2.044a13.746,13.746,0,1,0,13.468,16.5l-7.417.829a7.039,7.039,0,1,1-3.43-10.137l5.161-4.779a13.665,13.665,0,0,0-7.782-2.417Zm12.964,41.614c.79,1.417,4.033,4.277,5.321,5.566,4.176,4.174,10.755-2.215,6.485-6.485l-4.174-4.171a30.637,30.637,0,0,0,9.176-29.806l-6.722,3.077a23.4,23.4,0,1,1-4.233-9.867l6.652-3.042a30.611,30.611,0,1,0-46,39.688l-4.121,4.121c-4.314,4.312,2.158,10.812,6.483,6.485,1.292-1.294,4.492-4.112,5.3-5.527a30.685,30.685,0,0,0,25.834-.04Z" transform="translate(164.432 71.445)" fill="#fff" fill-rule="evenodd"/>
          <path id="Path_100548" data-name="Path 100548" d="M336.169,168.357v.993h-1.423v-1.171a2.026,2.026,0,0,1,2.022-2.022h7.556a2.027,2.027,0,0,1,2.024,2.022v1.171h-1.415v-.993a.778.778,0,0,0-.779-.776h-7.209a.778.778,0,0,0-.776.776Zm19.693,15.194V172.263a2.027,2.027,0,0,0-2.024-2.022H327.264a2.026,2.026,0,0,0-2.024,2.022v11.288a.313.313,0,0,0,.311.311h12.5v-.6a.779.779,0,0,1,.779-.779h3.448a.778.778,0,0,1,.776.779v.6h12.5a.313.313,0,0,0,.311-.311Zm-12.81,1.2v.6a.78.78,0,0,1-.776.779h-3.448a.78.78,0,0,1-.779-.779v-.6h-12.5a.313.313,0,0,0-.311.311V188.1a2.028,2.028,0,0,0,2.024,2.024h26.573a2.029,2.029,0,0,0,2.024-2.024v-3.042a.313.313,0,0,0-.311-.311Z" transform="translate(284.918 165.549)" fill="#fff" fill-rule="evenodd"/>
          <path id="Path_100549" data-name="Path 100549" d="M200.4,286.789c-.425.741-2.513,4.1-3.364,5.851a.539.539,0,0,1-.5.311H192.46a.544.544,0,0,1-.5-.314c-.84-1.746-2.939-5.088-3.378-5.849-1.614-1.847,13.429-1.847,11.813,0ZM188.741,304.3c-6.325,5.661-7.99,7-15.021,10.815a.486.486,0,0,1-.2.064l-3.384.4a.552.552,0,0,1-.48-.91l2.7-3.106a.528.528,0,0,1,.18-.136c2.871-1.353,13.561-9.165,17.686-14.008a66.793,66.793,0,0,0-1.485,6.88Zm8.185-9.529a.543.543,0,0,0-.537-.432h-3.783a.546.546,0,0,0-.54.434l-7.192,33.315a.54.54,0,0,0,.116.472l9.084,10.819a.554.554,0,0,0,.842.007l9.372-10.823a.548.548,0,0,0,.121-.483Z" transform="translate(99.114 307.834)" fill="#fff" fill-rule="evenodd"/>
          <path id="Path_100550" data-name="Path 100550" d="M216.376,146.97a61.979,61.979,0,0,0,9.946,17.258,2.815,2.815,0,0,0,3.932.414l3.149-2.524a1.3,1.3,0,0,0,.211-1.812l-2.513-3.217a1.3,1.3,0,0,0-1.836-.213l-2,1.6a57.054,57.054,0,0,1-5.419-9.466l2.349-.917a1.3,1.3,0,0,0,.733-1.7l-1.529-3.785a1.3,1.3,0,0,0-1.676-.724l-3.746,1.461A2.814,2.814,0,0,0,216.376,146.97Z" transform="translate(154.8 136.486)" fill="#fff" fill-rule="evenodd"/>
          <path id="Path_100551" data-name="Path 100551" d="M223.1,234.621c-.237-.211-.221-.669.035-1.2l-3.318-2.163a2.062,2.062,0,0,1,1.294-.66l3.851-.509c.292-.039.575-.061.84-.114.423-.643,1.733-2.277,2.386-3.141l1.741-2.3L221.508,222c-.877-.263.781-2.228,1.577-2.011l11.1.29,2.8-2.8c2.189-2.187,5.13-3.209,5.8-2.542s-.357,3.608-2.542,5.8l-2.8,2.8.292,11.1c.217.8-1.748,2.452-2.013,1.575l-2.535-8.424-2.305,1.744c-.862.654-2.5,1.961-3.138,2.386-.053.265-.077.548-.114.84l-.511,3.851a2.051,2.051,0,0,1-.66,1.294l-2.162-3.318C223.769,234.841,223.313,234.856,223.1,234.621Z" transform="translate(159.13 223.516)" fill="#fff" fill-rule="evenodd"/>
          <path id="Path_100552" data-name="Path 100552" d="M200.069,120.728h11.2v1.937a.648.648,0,0,1-.64.643H196.476a.646.646,0,0,1-.643-.643V101.988a.645.645,0,0,1,.643-.643h1.934V119.07a1.661,1.661,0,0,0,1.658,1.658Zm2.283-16.927a.6.6,0,0,0-.627.572h0a.6.6,0,0,0,.627.572h11.574a.6.6,0,0,0,.625-.572h0a.6.6,0,0,0-.625-.572Zm0,6.538a.6.6,0,0,0-.627.572h0a.6.6,0,0,0,.627.572h11.574a.6.6,0,0,0,.625-.572h0a.6.6,0,0,0-.625-.572Zm10.04,2.022a2.62,2.62,0,0,0-1.763.667l0,0h0a2.135,2.135,0,0,0,0,3.22h0l0,0a2.662,2.662,0,0,0,3.524,0l0,0h0a2.135,2.135,0,0,0,0-3.22h0l0,0a2.619,2.619,0,0,0-1.761-.667Zm1.13,1.244a1.718,1.718,0,0,0-2.263,0v0a1.376,1.376,0,0,0,0,2.066v0a1.718,1.718,0,0,0,2.263,0l0,0a1.376,1.376,0,0,0,0-2.066l0,0Zm-1.13.162a.877.877,0,1,1-.958.873.917.917,0,0,1,.958-.873Zm-10.04-6.7a.6.6,0,0,0-.627.57h0a.6.6,0,0,0,.627.572h11.574a.6.6,0,0,0,.625-.572h0a.6.6,0,0,0-.625-.57Zm13.776,13.657a1.662,1.662,0,0,0,1.66-1.658V101.6l-6.77-6.77H200.069a1.661,1.661,0,0,0-1.658,1.658v2.888h-2.888a1.661,1.661,0,0,0-1.658,1.66v22.581a1.661,1.661,0,0,0,1.658,1.66h16.059a1.659,1.659,0,0,0,1.658-1.66v-2.888Zm-5.869-20.912V96.8h-9.236a.644.644,0,0,0-.643.643v20.675a.644.644,0,0,0,.643.643h14.153a.648.648,0,0,0,.643-.643V102.358H212.8A2.546,2.546,0,0,1,210.258,99.816Z" transform="translate(128.16 80.441)" fill="#fff" fill-rule="evenodd"/>
          <path id="Path_100553" data-name="Path 100553" d="M191.337,164.1l2.636-3.932a3.451,3.451,0,0,1,.853-.895,2.31,2.31,0,0,1,3.419.623,2.733,2.733,0,0,1,.355.969c.138.822-2.437,4.354-3.347,5.786h0a.532.532,0,0,1-.483.246c-1.178-.081-4.141-1.741-3.435-2.8Zm39.708-9.247a2.721,2.721,0,0,0,3.926,2.095l3.722-1.893a3.943,3.943,0,0,0,2.261-3.557v-21.02a3.928,3.928,0,0,0-5.25-3.7l-10.473,3.746a4.336,4.336,0,0,0-1.068.542c-1.555,1.11-1.143,2.827-.3,4.235a41.125,41.125,0,0,1,7.181,19.55Zm-49.281,0a2.721,2.721,0,0,1-3.926,2.095l-3.72-1.893a3.941,3.941,0,0,1-2.263-3.557v-21.02a3.928,3.928,0,0,1,5.251-3.7l10.473,3.746a4.337,4.337,0,0,1,1.068.542c1.555,1.112,1.143,2.827.3,4.235a41.124,41.124,0,0,0-7.181,19.55Zm44.746-11.429a39.634,39.634,0,0,1,2.827,9.753l.05.355-.314.18-4.154,2.36-.36.2-.285-.3c-3.022-3.187-7.468-9.251-10.762-11.277a6.018,6.018,0,0,0-3.687-.344,47.481,47.481,0,0,0-5.222,1.11,18.732,18.732,0,0,1-6.189.781,1.629,1.629,0,0,1-1.178-.6h0a1.084,1.084,0,0,1,.171-1.327,13.162,13.162,0,0,1,4.1-2.77,72.078,72.078,0,0,1,9.523-4.075,62.662,62.662,0,0,1,10.348-2.573,33.962,33.962,0,0,1,5.125,8.518Zm-39,14.517.318.18.281-.237c1.895-1.61,3.886-1.349,5.608.292a3.818,3.818,0,0,1,4.191-.5,4.216,4.216,0,0,1,2.123,2.581,3.64,3.64,0,0,1,2.917.044,3.33,3.33,0,0,1,1.923,3.073l-.007.441a3.075,3.075,0,0,1,1.858.877l.331-.419a.755.755,0,0,1,.463-.27.737.737,0,0,1,.559.127l7.847,5.58.042.029.033.018a4.644,4.644,0,0,0,1.807.491,1.885,1.885,0,0,0,1.024-.226,1.714,1.714,0,0,0,.254-2.472l-10.729-8.527a.683.683,0,0,1-.263-.75.948.948,0,0,1,.156-.294.914.914,0,0,1,.252-.217h0a.678.678,0,0,1,.79.088l10.994,8.738a2.3,2.3,0,0,0,1.706.34,1.428,1.428,0,0,0,.934-1.54,4.085,4.085,0,0,0-1.18-2.5l-9.356-8.76a.748.748,0,0,1,.243-1.244.729.729,0,0,1,.781.151l9,8.424a.591.591,0,0,0,.474.162,2.376,2.376,0,0,0,1.053-.3,1.311,1.311,0,0,0,.614-1.206c0-2.292-9.448-12.328-11.97-14.205-2.255-1.189-10.176,2.307-13.769,2.147-1.77-.077-3.136-.849-3.031-3.187.055-1.252,1.748-2.656,3.827-3.924a51.344,51.344,0,0,1,6.488-3.191l1.581-.665-1.68-.344a38.411,38.411,0,0,0-15.826.239l-.226.044-.123.2a43.832,43.832,0,0,0-4.215,8.624,45.637,45.637,0,0,0-2.3,9.742l4.2,2.362Zm19.765,7.455,1.018.726,6.033,4.292c.717.509-.314,1.886-1.14,1.713-1.531-.322-3.86-1.895-5.5-2.845l-.318-.184.061-.362a9.12,9.12,0,0,0-.151-3.34Zm-5.974,4.746,2.792-4.487a.533.533,0,0,1,.417-.263,1.211,1.211,0,0,1,1.215.625,2.086,2.086,0,0,1,.219.572,3.615,3.615,0,0,1,.083.7,5.413,5.413,0,0,1-.037.774,6.741,6.741,0,0,1-.5,1.864,3.736,3.736,0,0,1-.947,1.369,1.8,1.8,0,0,1-1.579.379,3.676,3.676,0,0,1-1.531-.833.531.531,0,0,1-.127-.7Zm2.077-6.849h0a1.983,1.983,0,0,0-2.766-1.669,1.5,1.5,0,0,0-.737.621l-3.331,5.165a.529.529,0,0,0,.127.686v0a7.546,7.546,0,0,0,2.785,1.441.525.525,0,0,0,.564-.235h0l3.057-4.865a.514.514,0,0,0,.042-.086,2.542,2.542,0,0,0,.257-1.061ZM188,162.524a2.173,2.173,0,0,0,.371.507,2.711,2.711,0,0,0,.415.347,3.27,3.27,0,0,0,.5.283.525.525,0,0,0,.673-.2l2.527-3.766a.526.526,0,0,0-.072-.675,2.671,2.671,0,0,0-.621-.452,2.135,2.135,0,0,0-.713-.224c-1.608-.206-3.09,1.421-3.279,2.9A2.1,2.1,0,0,0,188,162.524Z" transform="translate(101.899 118.278)" fill="#fff" fill-rule="evenodd"/>
          <path id="Path_100554" data-name="Path 100554" d="M338.94,348.9c139.444,0,252.481,10,252.481,22.329S478.384,393.558,338.94,393.558s-252.485-10-252.485-22.329S199.495,348.9,338.94,348.9Z" transform="translate(0 383.598)" fill="#f2f2f2" fill-rule="evenodd"/>
          <g id="Group_46329" data-name="Group 46329" transform="translate(102.919 734.115)" opacity="0.436">
            <path id="Path_100555" data-name="Path 100555" d="M326.573,349.637c128.469,0,232.611,9.222,232.611,20.592s-104.142,20.59-232.611,20.59S93.962,381.6,93.962,370.229,198.1,349.637,326.573,349.637Z" transform="translate(-93.962 -349.637)" fill="#efefef" fill-rule="evenodd"/>
            <path id="Path_100556" data-name="Path 100556" d="M314.207,350.374c117.492,0,212.736,8.444,212.736,18.853S431.7,388.077,314.207,388.077s-212.738-8.442-212.738-18.851S196.713,350.374,314.207,350.374Z" transform="translate(-85.005 -348.758)" fill="#ececec" fill-rule="evenodd"/>
            <path id="Path_100557" data-name="Path 100557" d="M301.841,351.111c106.517,0,192.863,7.665,192.863,17.114s-86.346,17.114-192.863,17.114-192.866-7.665-192.866-17.114S195.323,351.111,301.841,351.111Z" transform="translate(-76.048 -347.878)" fill="#e9e9e9" fill-rule="evenodd"/>
            <ellipse id="Ellipse_4278" data-name="Ellipse 4278" cx="172.991" cy="15.374" rx="172.991" ry="15.374" transform="translate(49.391 4.851)" fill="#e5e5e5"/>
            <path id="Path_100558" data-name="Path 100558" d="M277.107,352.586c84.565,0,153.118,6.108,153.118,13.635s-68.553,13.635-153.118,13.635-153.118-6.106-153.118-13.635S192.54,352.586,277.107,352.586Z" transform="translate(-58.134 -346.118)" fill="#e2e2e2" fill-rule="evenodd"/>
            <ellipse id="Ellipse_4279" data-name="Ellipse 4279" cx="133.245" cy="11.896" rx="133.245" ry="11.896" transform="translate(82.319 8.085)" fill="#dfdfdf"/>
            <path id="Path_100559" data-name="Path 100559" d="M252.375,354.06c62.614,0,113.373,4.549,113.373,10.159s-50.759,10.157-113.373,10.157S139,369.827,139,364.219,189.759,354.06,252.375,354.06Z" transform="translate(-40.22 -344.359)" fill="#dcdcdc" fill-rule="evenodd"/>
            <path id="Path_100560" data-name="Path 100560" d="M240.007,354.8c51.639,0,93.5,3.77,93.5,8.42s-41.862,8.418-93.5,8.418-93.5-3.77-93.5-8.418S188.368,354.8,240.007,354.8Z" transform="translate(-31.263 -343.48)" fill="#d9d9d9" fill-rule="evenodd"/>
            <path id="Path_100561" data-name="Path 100561" d="M227.643,355.535c40.662,0,73.626,2.992,73.626,6.678s-32.964,6.681-73.626,6.681-73.628-2.992-73.628-6.681S186.979,355.535,227.643,355.535Z" transform="translate(-22.307 -342.599)" fill="#d6d6d6" fill-rule="evenodd"/>
            <path id="Path_100562" data-name="Path 100562" d="M215.275,356.272c29.687,0,53.753,2.213,53.753,4.941s-24.066,4.941-53.753,4.941-53.753-2.213-53.753-4.941S185.588,356.272,215.275,356.272Z" transform="translate(-13.349 -341.72)" fill="#d2d2d2" fill-rule="evenodd"/>
            <path id="Path_100563" data-name="Path 100563" d="M202.91,357.009c18.712,0,33.881,1.434,33.881,3.2s-15.168,3.2-33.881,3.2-33.881-1.432-33.881-3.2S184.2,357.009,202.91,357.009Z" transform="translate(-4.392 -340.841)" fill="#cfcfcf" fill-rule="evenodd"/>
          </g>
          <path id="Path_100564" data-name="Path 100564" d="M190.543,360.673c7.716,0,14.008-.658,14.008-1.463s-6.292-1.463-14.008-1.463-14.008.656-14.008,1.463S182.827,360.673,190.543,360.673Z" transform="translate(107.483 394.154)" fill="#ccc" fill-rule="evenodd"/>
        </g>
      </g>
      <circle id="Ellipse_4270" data-name="Ellipse 4270" cx="60" cy="60" r="60" transform="translate(194 1623)" fill="#f25630"/>
      <g id="Group_46221" data-name="Group 46221" transform="translate(1773.777 1343.806) rotate(90)">
        <g id="Group_46219" data-name="Group 46219" transform="translate(1038.933 1459.355)">
          <g id="Group_45965" data-name="Group 45965">
            <path id="Path_100356" data-name="Path 100356" d="M122.542,143.253a1.629,1.629,0,1,1-1.629-1.629A1.629,1.629,0,0,1,122.542,143.253Z" transform="translate(-119.284 -141.624)" fill="#f25630"/>
            <path id="Path_100357" data-name="Path 100357" d="M137.79,143.253a1.629,1.629,0,1,1-1.629-1.629A1.629,1.629,0,0,1,137.79,143.253Z" transform="translate(-118.987 -141.624)" fill="#f25630"/>
            <path id="Path_100358" data-name="Path 100358" d="M153.038,143.253a1.629,1.629,0,1,1-1.628-1.629A1.629,1.629,0,0,1,153.038,143.253Z" transform="translate(-118.689 -141.624)" fill="#f25630"/>
            <path id="Path_100359" data-name="Path 100359" d="M168.287,143.253a1.629,1.629,0,1,1-1.629-1.629A1.63,1.63,0,0,1,168.287,143.253Z" transform="translate(-118.392 -141.624)" fill="#f25630"/>
            <path id="Path_100360" data-name="Path 100360" d="M183.535,143.253a1.629,1.629,0,1,1-1.629-1.629A1.63,1.63,0,0,1,183.535,143.253Z" transform="translate(-118.094 -141.624)" fill="#f25630"/>
            <path id="Path_100361" data-name="Path 100361" d="M198.783,143.253a1.629,1.629,0,1,1-1.629-1.629A1.629,1.629,0,0,1,198.783,143.253Z" transform="translate(-117.797 -141.624)" fill="#f25630"/>
            <path id="Path_100362" data-name="Path 100362" d="M214.031,143.253a1.629,1.629,0,1,1-1.629-1.629A1.629,1.629,0,0,1,214.031,143.253Z" transform="translate(-117.499 -141.624)" fill="#f25630"/>
          </g>
          <g id="Group_45966" data-name="Group 45966" transform="translate(0 15.027)">
            <circle id="Ellipse_4251" data-name="Ellipse 4251" cx="1.629" cy="1.629" r="1.629" transform="translate(0 0)" fill="#f25630"/>
            <circle id="Ellipse_4252" data-name="Ellipse 4252" cx="1.629" cy="1.629" r="1.629" transform="translate(15.546 0)" fill="#f25630"/>
            <circle id="Ellipse_4253" data-name="Ellipse 4253" cx="1.629" cy="1.629" r="1.629" transform="translate(31.091 0)" fill="#f25630"/>
            <circle id="Ellipse_4254" data-name="Ellipse 4254" cx="1.629" cy="1.629" r="1.629" transform="translate(46.637 0)" fill="#f25630"/>
            <circle id="Ellipse_4255" data-name="Ellipse 4255" cx="1.629" cy="1.629" r="1.629" transform="translate(62.182)" fill="#f25630"/>
            <circle id="Ellipse_4256" data-name="Ellipse 4256" cx="1.629" cy="1.629" r="1.629" transform="translate(77.728 0)" fill="#f25630"/>
            <circle id="Ellipse_4257" data-name="Ellipse 4257" cx="1.629" cy="1.629" r="1.629" transform="translate(93.274 0)" fill="#f25630"/>
          </g>
          <g id="Group_45967" data-name="Group 45967" transform="translate(0 30.055)">
            <path id="Path_100363" data-name="Path 100363" d="M122.542,172.733a1.629,1.629,0,1,1-1.629-1.629A1.628,1.628,0,0,1,122.542,172.733Z" transform="translate(-119.284 -171.104)" fill="#f25630"/>
            <path id="Path_100364" data-name="Path 100364" d="M137.79,172.733a1.629,1.629,0,1,1-1.629-1.629A1.628,1.628,0,0,1,137.79,172.733Z" transform="translate(-118.987 -171.104)" fill="#f25630"/>
            <path id="Path_100365" data-name="Path 100365" d="M153.038,172.733a1.629,1.629,0,1,1-1.628-1.629A1.628,1.628,0,0,1,153.038,172.733Z" transform="translate(-118.689 -171.104)" fill="#f25630"/>
            <path id="Path_100366" data-name="Path 100366" d="M168.287,172.733a1.629,1.629,0,1,1-1.629-1.629A1.629,1.629,0,0,1,168.287,172.733Z" transform="translate(-118.392 -171.104)" fill="#f25630"/>
            <path id="Path_100367" data-name="Path 100367" d="M183.535,172.733a1.629,1.629,0,1,1-1.629-1.629A1.629,1.629,0,0,1,183.535,172.733Z" transform="translate(-118.094 -171.104)" fill="#f25630"/>
            <path id="Path_100368" data-name="Path 100368" d="M198.783,172.733a1.629,1.629,0,1,1-1.629-1.629A1.628,1.628,0,0,1,198.783,172.733Z" transform="translate(-117.797 -171.104)" fill="#f25630"/>
            <path id="Path_100369" data-name="Path 100369" d="M214.031,172.733A1.629,1.629,0,1,1,212.4,171.1,1.628,1.628,0,0,1,214.031,172.733Z" transform="translate(-117.499 -171.104)" fill="#f25630"/>
          </g>
          <g id="Group_45968" data-name="Group 45968" transform="translate(0 45.082)">
            <circle id="Ellipse_4258" data-name="Ellipse 4258" cx="1.629" cy="1.629" r="1.629" fill="#f25630"/>
            <circle id="Ellipse_4259" data-name="Ellipse 4259" cx="1.629" cy="1.629" r="1.629" transform="translate(15.546)" fill="#f25630"/>
            <circle id="Ellipse_4260" data-name="Ellipse 4260" cx="1.629" cy="1.629" r="1.629" transform="translate(31.091)" fill="#f25630"/>
            <circle id="Ellipse_4261" data-name="Ellipse 4261" cx="1.629" cy="1.629" r="1.629" transform="translate(46.637)" fill="#f25630"/>
            <circle id="Ellipse_4262" data-name="Ellipse 4262" cx="1.629" cy="1.629" r="1.629" transform="translate(62.182)" fill="#f25630"/>
            <circle id="Ellipse_4263" data-name="Ellipse 4263" cx="1.629" cy="1.629" r="1.629" transform="translate(77.728)" fill="#f25630"/>
            <circle id="Ellipse_4264" data-name="Ellipse 4264" cx="1.629" cy="1.629" r="1.629" transform="translate(93.274)" fill="#f25630"/>
          </g>
          <g id="Group_45969" data-name="Group 45969" transform="translate(0 60.109)">
            <path id="Path_100370" data-name="Path 100370" d="M122.542,202.212a1.629,1.629,0,1,1-1.629-1.629A1.629,1.629,0,0,1,122.542,202.212Z" transform="translate(-119.284 -200.583)" fill="#f25630"/>
            <path id="Path_100371" data-name="Path 100371" d="M137.79,202.212a1.629,1.629,0,1,1-1.629-1.629A1.629,1.629,0,0,1,137.79,202.212Z" transform="translate(-118.987 -200.583)" fill="#f25630"/>
            <path id="Path_100372" data-name="Path 100372" d="M153.038,202.212a1.629,1.629,0,1,1-1.628-1.629A1.628,1.628,0,0,1,153.038,202.212Z" transform="translate(-118.689 -200.583)" fill="#f25630"/>
            <path id="Path_100373" data-name="Path 100373" d="M168.287,202.212a1.629,1.629,0,1,1-1.629-1.629A1.629,1.629,0,0,1,168.287,202.212Z" transform="translate(-118.392 -200.583)" fill="#f25630"/>
            <path id="Path_100374" data-name="Path 100374" d="M183.535,202.212a1.629,1.629,0,1,1-1.629-1.629A1.629,1.629,0,0,1,183.535,202.212Z" transform="translate(-118.094 -200.583)" fill="#f25630"/>
            <path id="Path_100375" data-name="Path 100375" d="M198.783,202.212a1.629,1.629,0,1,1-1.629-1.629A1.629,1.629,0,0,1,198.783,202.212Z" transform="translate(-117.797 -200.583)" fill="#f25630"/>
            <path id="Path_100376" data-name="Path 100376" d="M214.031,202.212a1.629,1.629,0,1,1-1.629-1.629A1.629,1.629,0,0,1,214.031,202.212Z" transform="translate(-117.499 -200.583)" fill="#f25630"/>
          </g>
          <g id="Group_45970" data-name="Group 45970" transform="translate(0 75.137)">
            <path id="Path_100377" data-name="Path 100377" d="M122.542,216.952a1.629,1.629,0,1,1-1.629-1.629A1.629,1.629,0,0,1,122.542,216.952Z" transform="translate(-119.284 -215.323)" fill="#f25630"/>
            <path id="Path_100378" data-name="Path 100378" d="M137.79,216.952a1.629,1.629,0,1,1-1.629-1.629A1.629,1.629,0,0,1,137.79,216.952Z" transform="translate(-118.987 -215.323)" fill="#f25630"/>
            <path id="Path_100379" data-name="Path 100379" d="M153.038,216.952a1.629,1.629,0,1,1-1.628-1.629A1.628,1.628,0,0,1,153.038,216.952Z" transform="translate(-118.689 -215.323)" fill="#f25630"/>
            <path id="Path_100380" data-name="Path 100380" d="M168.287,216.952a1.629,1.629,0,1,1-1.629-1.629A1.629,1.629,0,0,1,168.287,216.952Z" transform="translate(-118.392 -215.323)" fill="#f25630"/>
            <path id="Path_100381" data-name="Path 100381" d="M183.535,216.952a1.629,1.629,0,1,1-1.629-1.629A1.629,1.629,0,0,1,183.535,216.952Z" transform="translate(-118.094 -215.323)" fill="#f25630"/>
            <path id="Path_100382" data-name="Path 100382" d="M198.783,216.952a1.629,1.629,0,1,1-1.629-1.629A1.629,1.629,0,0,1,198.783,216.952Z" transform="translate(-117.797 -215.323)" fill="#f25630"/>
            <path id="Path_100383" data-name="Path 100383" d="M214.031,216.952a1.629,1.629,0,1,1-1.629-1.629A1.629,1.629,0,0,1,214.031,216.952Z" transform="translate(-117.499 -215.323)" fill="#f25630"/>
          </g>
          <g id="Group_45971" data-name="Group 45971" transform="translate(0 90.164)">
            <path id="Path_100384" data-name="Path 100384" d="M122.542,231.692a1.629,1.629,0,1,1-1.629-1.629A1.629,1.629,0,0,1,122.542,231.692Z" transform="translate(-119.284 -230.063)" fill="#f25630"/>
            <path id="Path_100385" data-name="Path 100385" d="M137.79,231.692a1.629,1.629,0,1,1-1.629-1.629A1.629,1.629,0,0,1,137.79,231.692Z" transform="translate(-118.987 -230.063)" fill="#f25630"/>
            <path id="Path_100386" data-name="Path 100386" d="M153.038,231.692a1.629,1.629,0,1,1-1.628-1.629A1.629,1.629,0,0,1,153.038,231.692Z" transform="translate(-118.689 -230.063)" fill="#f25630"/>
            <path id="Path_100387" data-name="Path 100387" d="M168.287,231.692a1.629,1.629,0,1,1-1.629-1.629A1.63,1.63,0,0,1,168.287,231.692Z" transform="translate(-118.392 -230.063)" fill="#f25630"/>
            <path id="Path_100388" data-name="Path 100388" d="M183.535,231.692a1.629,1.629,0,1,1-1.629-1.629A1.63,1.63,0,0,1,183.535,231.692Z" transform="translate(-118.094 -230.063)" fill="#f25630"/>
            <path id="Path_100389" data-name="Path 100389" d="M198.783,231.692a1.629,1.629,0,1,1-1.629-1.629A1.629,1.629,0,0,1,198.783,231.692Z" transform="translate(-117.797 -230.063)" fill="#f25630"/>
            <path id="Path_100390" data-name="Path 100390" d="M214.031,231.692a1.629,1.629,0,1,1-1.629-1.629A1.629,1.629,0,0,1,214.031,231.692Z" transform="translate(-117.499 -230.063)" fill="#f25630"/>
          </g>
        </g>
      </g>
      <g transform="matrix(1, 0, 0, 1, 194, 1623)" filter="url(#Ellipse_4271)">
        <circle id="Ellipse_4271-2" data-name="Ellipse 4271" cx="39" cy="39" r="39" transform="translate(423 806)" fill="#fff"/>
      </g>
    </g>
  </g>
</svg>
