<?xml version="1.0" encoding="utf-8"?>
<!-- Generator: Adobe Illustrator 24.0.1, SVG Export Plug-In . SVG Version: 6.00 Build 0)  -->
<svg version="1.1" id="Layer_1" xmlns="http://www.w3.org/2000/svg" xmlns:xlink="http://www.w3.org/1999/xlink" x="0px" y="0px"
	 viewBox="0 0 100 39" style="enable-background:new 0 0 100 39;" xml:space="preserve">
<style type="text/css">
	.st0{fill:#181A27;}
</style>
<g>
	<path class="st0" d="M12.837,29.489c-5.71-1.395-9.806-8.272-9.108-14.892C4.485,7.423,10.109,1.995,16.781,2
		c6.676,0.005,12.299,5.437,13.048,12.604c0.691,6.621-3.406,13.489-8.964,14.849c-0.22-1.943-0.309-3.958-1.899-5.497
		c0.661-0.483,1.223-0.894,1.777-1.299c1.3,0.677,1.461,1.994,2.131,2.986c3.723-2.443,5.537-7.652,4.344-12.403
		c-1.289-5.134-5.342-8.597-10.233-8.745C12.207,4.35,7.89,7.761,6.465,12.808c-1.385,4.905,0.269,10.046,4.26,12.927
		c0.973-3.114,3.274-4.511,5.931-5.484c0.709-0.26,1.389-0.717,1.987-1.218c1.545-1.294,1.817-3.335,0.731-4.925
		c-1.07-1.566-3.147-1.888-4.561-0.705c-1.429,1.195-1.662,3.226-0.561,4.961c0.166,0.262,0.359,0.503,0.557,0.778
		c-0.666,0.464-1.326,0.851-2.063,1.003c-2.383-2.414-1.714-6.488,0.297-8.417c2.269-2.177,5.781-2.031,7.82,0.369
		c2.062,2.427,1.94,6.213-0.296,8.479c-0.87,0.881-1.859,1.635-2.998,1.989C14.416,23.543,12.513,25.52,12.837,29.489z"/>
	<path class="st0" d="M16.784,38.084c-0.705-0.431-1.201-1.043-1.714-1.736c0.233-2.384,0.468-4.795,0.706-7.228
		c-0.395-0.273-0.726-0.502-1.087-0.752c0.252-0.753,0.492-1.469,0.742-2.213c0.87,0,1.682,0,2.549,0
		c0.581,0.562,0.524,1.47,0.904,2.198c-0.383,0.27-0.713,0.503-1.105,0.779c0.235,2.376,0.467,4.726,0.704,7.13
		C18.088,37.02,17.491,37.595,16.784,38.084z"/>
</g>
<g>
	<path class="st0" d="M40.818,17.545V9.618h-2.916v-1.81h8.157v1.81h-2.917v7.928H40.818z"/>
	<path class="st0" d="M53.568,17.545l3.842-9.738h2.545l3.433,9.738h-2.337l-0.63-1.894h-3.798l-0.706,1.894H53.568z M57.259,13.982
		h2.602l-1.234-3.703L57.259,13.982z"/>
	<path class="st0" d="M71.451,17.545l3.717-5.046l-3.496-4.691h2.771l2.104,2.854l2.116-2.854h2.759l-3.521,4.664l3.843,5.074
		h-2.835l-2.361-3.181l-2.35,3.181H71.451z"/>
	<path class="st0" d="M90.992,17.545V7.808h2.274v9.738H90.992z"/>
</g>
<g>
	<path class="st0" d="M45.75,26.009c0,0.865-0.294,1.529-0.882,1.99c-0.588,0.463-1.442,0.693-2.563,0.693h-3.458v-9.235h3.288
		c0.983,0,1.755,0.21,2.318,0.63c0.563,0.42,0.844,0.996,0.844,1.727c0,0.89-0.443,1.549-1.33,1.978
		c0.596,0.151,1.042,0.43,1.339,0.834C45.602,25.032,45.75,25.492,45.75,26.009z M40.069,23.326h2.054
		c0.676,0,1.173-0.108,1.493-0.325c0.319-0.216,0.479-0.576,0.479-1.08c0-0.453-0.155-0.795-0.466-1.023
		c-0.311-0.229-0.851-0.343-1.619-0.343h-1.94V23.326z M40.069,27.597h2.224c1.461,0,2.192-0.529,2.192-1.588
		c0-0.55-0.169-0.952-0.507-1.206c-0.338-0.254-0.952-0.381-1.843-0.381h-2.066V27.597z"/>
	<path class="st0" d="M56.325,28.692h-1.38l-1.07-2.81h-3.868l-1.021,2.81h-1.291l3.545-9.235h1.317L56.325,28.692z M53.516,24.913
		l-1.625-4.283l-1.549,4.283H53.516z"/>
	<path class="st0" d="M64.348,28.692h-5.713v-9.235h1.222v8.139h4.491V28.692z"/>
	<path class="st0" d="M74.684,28.692h-1.38l-1.07-2.81h-3.868l-1.021,2.81h-1.291l3.546-9.235h1.317L74.684,28.692z M71.874,24.913
		l-1.625-4.283l-1.55,4.283H71.874z"/>
	<path class="st0" d="M84.244,28.692H82.99l-4.837-7.288v7.288h-1.159v-9.235h1.247l4.838,7.289v-7.289h1.165V28.692z"/>
	<path class="st0" d="M91.083,28.85c-1.302,0-2.275-0.292-2.92-0.875c-0.645-0.584-0.983-1.333-1.018-2.249h1.179
		c0.063,0.688,0.35,1.198,0.859,1.527c0.51,0.33,1.126,0.494,1.849,0.494c0.685,0,1.235-0.141,1.653-0.422s0.627-0.663,0.627-1.146
		c0-0.508-0.217-0.877-0.648-1.108c-0.433-0.23-1.178-0.459-2.233-0.684s-1.814-0.536-2.273-0.935
		c-0.46-0.399-0.69-0.931-0.69-1.594c0-0.748,0.3-1.362,0.897-1.84c0.599-0.479,1.394-0.718,2.385-0.718
		c1.041,0,1.881,0.241,2.52,0.725c0.638,0.483,0.977,1.166,1.014,2.047h-1.19c-0.122-1.117-0.886-1.676-2.293-1.676
		c-0.68,0-1.207,0.129-1.581,0.385c-0.373,0.256-0.561,0.596-0.561,1.021c0,0.386,0.15,0.676,0.451,0.869
		c0.3,0.193,0.86,0.38,1.682,0.561c0.82,0.181,1.473,0.358,1.955,0.535c0.483,0.177,0.897,0.45,1.241,0.822
		c0.345,0.371,0.517,0.87,0.517,1.496c0,0.793-0.316,1.453-0.948,1.978C92.923,28.588,92.099,28.85,91.083,28.85z"/>
</g>
<g>
	<path d="M39.845,32.98l-0.364,1.104h-0.468l1.192-3.507h0.546l1.197,3.507h-0.484l-0.375-1.104H39.845z M40.995,32.627l-0.343-1.01
		c-0.078-0.229-0.13-0.437-0.182-0.64h-0.01c-0.052,0.208-0.109,0.422-0.177,0.635l-0.344,1.015H40.995z"/>
	<path d="M42.46,30.624c0.276-0.042,0.604-0.073,0.962-0.073c0.65,0,1.114,0.151,1.42,0.438c0.313,0.286,0.495,0.691,0.495,1.259
		c0,0.572-0.177,1.041-0.505,1.363c-0.328,0.328-0.869,0.505-1.55,0.505c-0.323,0-0.593-0.016-0.822-0.042V30.624z M42.913,33.725
		c0.114,0.021,0.281,0.026,0.458,0.026c0.968,0,1.493-0.541,1.493-1.488c0.005-0.827-0.463-1.353-1.42-1.353
		c-0.234,0-0.411,0.021-0.531,0.047V33.725z"/>
	<path d="M48.879,32.544c-0.026-0.489-0.058-1.077-0.052-1.515h-0.016c-0.12,0.411-0.265,0.849-0.442,1.332l-0.619,1.702h-0.343
		l-0.567-1.671c-0.167-0.494-0.307-0.946-0.406-1.363h-0.01c-0.01,0.438-0.037,1.025-0.068,1.551l-0.093,1.504H45.83l0.245-3.507
		h0.578l0.598,1.696c0.146,0.432,0.266,0.816,0.354,1.181h0.016c0.088-0.354,0.213-0.738,0.369-1.181l0.625-1.696h0.578l0.219,3.507
		h-0.442L48.879,32.544z"/>
	<path d="M50.557,30.577v3.507h-0.453v-3.507H50.557z"/>
	<path d="M51.347,34.084v-3.507h0.494l1.124,1.774c0.261,0.411,0.463,0.78,0.63,1.14l0.011-0.006
		c-0.042-0.468-0.053-0.895-0.053-1.441v-1.467h0.427v3.507h-0.458l-1.113-1.779c-0.244-0.391-0.479-0.791-0.655-1.171l-0.016,0.005
		c0.025,0.442,0.036,0.864,0.036,1.446v1.499H51.347z"/>
	<path d="M55.222,30.577v3.507h-0.453v-3.507H55.222z"/>
	<path d="M55.949,33.532c0.203,0.125,0.499,0.229,0.812,0.229c0.463,0,0.733-0.245,0.733-0.599c0-0.328-0.188-0.516-0.66-0.697
		c-0.573-0.203-0.927-0.5-0.927-0.994c0-0.546,0.453-0.952,1.135-0.952c0.358,0,0.619,0.083,0.775,0.172l-0.125,0.369
		c-0.115-0.063-0.349-0.166-0.666-0.166c-0.479,0-0.661,0.286-0.661,0.525c0,0.328,0.213,0.489,0.697,0.677
		c0.593,0.229,0.895,0.515,0.895,1.03c0,0.541-0.4,1.009-1.228,1.009c-0.338,0-0.708-0.099-0.895-0.224L55.949,33.532z"/>
	<path d="M59.241,30.962h-1.067v-0.385h2.597v0.385h-1.071v3.122h-0.458V30.962z"/>
	<path d="M61.159,30.624c0.229-0.047,0.557-0.073,0.869-0.073c0.483,0,0.796,0.089,1.015,0.286c0.177,0.156,0.275,0.396,0.275,0.666
		c0,0.463-0.291,0.771-0.66,0.896v0.016c0.271,0.094,0.432,0.343,0.515,0.707c0.114,0.489,0.198,0.827,0.271,0.963h-0.468
		c-0.058-0.099-0.136-0.4-0.234-0.838c-0.104-0.483-0.291-0.666-0.702-0.682h-0.427v1.52h-0.453V30.624z M61.612,32.222h0.463
		c0.483,0,0.791-0.266,0.791-0.666c0-0.453-0.328-0.65-0.807-0.656c-0.219,0-0.375,0.021-0.447,0.042V32.222z"/>
	<path d="M64.55,32.98l-0.364,1.104h-0.469l1.192-3.507h0.546l1.197,3.507h-0.484l-0.375-1.104H64.55z M65.699,32.627l-0.343-1.01
		c-0.078-0.229-0.13-0.437-0.183-0.64h-0.01c-0.053,0.208-0.109,0.422-0.177,0.635l-0.344,1.015H65.699z"/>
	<path d="M67.431,30.962h-1.066v-0.385h2.597v0.385h-1.072v3.122h-0.458V30.962z"/>
	<path d="M69.802,30.577v3.507H69.35v-3.507H69.802z"/>
	<path d="M72.407,32.439h-1.363v1.265h1.52v0.38h-1.972v-3.507h1.894v0.38h-1.441v1.108h1.363V32.439z"/>
	<path d="M73.15,30.577h0.452v1.69h0.016c0.094-0.135,0.188-0.26,0.276-0.374l1.071-1.316h0.563l-1.27,1.488l1.368,2.019h-0.536
		l-1.155-1.723l-0.333,0.386v1.337H73.15V30.577z"/>
	<path d="M76.588,32.98l-0.364,1.104h-0.469l1.191-3.507h0.547l1.196,3.507h-0.483l-0.375-1.104H76.588z M77.737,32.627l-0.343-1.01
		c-0.078-0.229-0.131-0.437-0.183-0.64h-0.011c-0.052,0.208-0.108,0.422-0.177,0.635l-0.343,1.015H77.737z"/>
	<path d="M79.203,34.084v-3.507h0.494l1.124,1.774c0.26,0.411,0.463,0.78,0.63,1.14l0.01-0.006
		c-0.041-0.468-0.052-0.895-0.052-1.441v-1.467h0.427v3.507h-0.458l-1.113-1.779c-0.245-0.391-0.479-0.791-0.655-1.171l-0.016,0.005
		c0.025,0.442,0.036,0.864,0.036,1.446v1.499H79.203z"/>
	<path d="M83.29,30.962h-1.066v-0.385h2.596v0.385h-1.071v3.122H83.29V30.962z"/>
	<path d="M88.065,32.294c0,1.207-0.733,1.848-1.629,1.848c-0.926,0-1.576-0.719-1.576-1.78c0-1.113,0.691-1.842,1.629-1.842
		C87.446,30.52,88.065,31.253,88.065,32.294z M85.344,32.352c0,0.749,0.406,1.42,1.119,1.42c0.718,0,1.124-0.66,1.124-1.457
		c0-0.697-0.364-1.425-1.119-1.425C85.719,30.89,85.344,31.581,85.344,32.352z"/>
	<path d="M91.648,32.294c0,1.207-0.733,1.848-1.629,1.848c-0.926,0-1.576-0.719-1.576-1.78c0-1.113,0.691-1.842,1.629-1.842
		C91.029,30.52,91.648,31.253,91.648,32.294z M88.927,32.352c0,0.749,0.406,1.42,1.119,1.42c0.718,0,1.124-0.66,1.124-1.457
		c0-0.697-0.364-1.425-1.119-1.425C89.302,30.89,88.927,31.581,88.927,32.352z"/>
	<path d="M92.233,30.624c0.229-0.047,0.557-0.073,0.869-0.073c0.483,0,0.796,0.089,1.015,0.286c0.177,0.156,0.275,0.396,0.275,0.666
		c0,0.463-0.291,0.771-0.661,0.896v0.016c0.271,0.094,0.433,0.343,0.516,0.707c0.114,0.489,0.197,0.827,0.271,0.963h-0.469
		c-0.057-0.099-0.135-0.4-0.233-0.838c-0.104-0.483-0.292-0.666-0.703-0.682h-0.427v1.52h-0.452V30.624z M92.686,32.222h0.464
		c0.483,0,0.791-0.266,0.791-0.666c0-0.453-0.328-0.65-0.807-0.656c-0.219,0-0.375,0.021-0.448,0.042V32.222z"/>
</g>
<g>
</g>
<g>
</g>
<g>
</g>
<g>
</g>
<g>
</g>
<g>
</g>
</svg>
